<svg width="50" height="50" viewBox="0 0 50 50" fill="none" xmlns="http://www.w3.org/2000/svg">
<path d="M3.59748 49.7499L48.4375 27.708C48.901 27.4815 49.2962 27.1038 49.5741 26.6218C49.8519 26.1398 50 25.5747 50 24.997C50 24.4192 49.8519 23.8541 49.5741 23.3721C49.2962 22.8901 48.901 22.5124 48.4375 22.2859L3.59748 0.244032C3.20921 0.0498236 2.78489 -0.0304809 2.36279 0.0103622C1.9407 0.0512053 1.53411 0.211911 1.17971 0.477983C0.82531 0.744054 0.534247 1.10712 0.332779 1.53443C0.13131 1.96173 0.0257759 2.43983 0.0256962 2.9256L0 16.5102C0 17.9836 0.950761 19.2507 2.23557 19.4275L38.5444 24.997L2.23557 30.5369C0.950761 30.7432 0 32.0103 0 33.4837L0.0256962 47.0683C0.0256962 49.1605 1.90152 50.6044 3.59748 49.7499V49.7499Z" fill="white"/>
</svg>
