<svg width="37" height="50" viewBox="0 0 37 50" fill="none" xmlns="http://www.w3.org/2000/svg">
<path d="M36.4078 18.2039C36.4078 8.16141 28.2464 0 18.2039 0C8.16141 0 0 8.16141 0 18.2039C0 28.7925 10.983 43.0522 15.8677 48.9078C17.0813 50.3641 19.2961 50.3641 20.5097 48.9078C25.4248 43.0522 36.4078 28.7925 36.4078 18.2039ZM14.1359 18.2039C13.0314 18.2039 12.104 17.2842 12.464 16.2399C13.2849 13.8587 15.553 12.1359 18.2039 12.1359C20.8548 12.1359 23.1228 13.8587 23.9437 16.2399C24.3037 17.2842 23.3764 18.2039 22.2718 18.2039H14.1359Z" fill="white"/>
</svg>
