<svg width="50" height="50" viewBox="0 0 50 50" fill="none" xmlns="http://www.w3.org/2000/svg">
<path d="M15.5131 0.0149325C13.935 -0.133505 12.4662 0.837198 12.0629 2.3704L10.6166 7.86552C28.9389 8.40165 41.3334 20.6204 42.1088 38.8225L47.6694 37.2815C49.2045 36.8558 50.1586 35.3597 49.976 33.7757C47.9369 16.1214 33.2778 1.69169 15.5131 0.0149325ZM9.80315 10.9524L0.052175 48.012C-0.0187115 48.2812 -0.0173441 48.5644 0.0561392 48.8329C0.129622 49.1014 0.272623 49.3458 0.470714 49.5414C0.668806 49.7371 0.914983 49.877 1.18441 49.9471C1.45384 50.0172 1.73699 50.015 2.0053 49.9407L39.017 39.677C38.6 22.5979 26.9975 11.1477 9.80315 10.9563V10.9524ZM12.4985 40.6253C11.8804 40.6253 11.2762 40.442 10.7623 40.0986C10.2484 39.7552 9.84786 39.2672 9.61134 38.6962C9.37482 38.1252 9.31293 37.4968 9.43351 36.8906C9.55409 36.2844 9.85172 35.7276 10.2888 35.2906C10.7258 34.8535 11.2826 34.5559 11.8888 34.4353C12.495 34.3148 13.1233 34.3766 13.6943 34.6132C14.2654 34.8497 14.7534 35.2502 15.0968 35.7641C15.4402 36.278 15.6235 36.8822 15.6235 37.5003C15.6235 38.3291 15.2942 39.1239 14.7082 39.71C14.1221 40.296 13.3273 40.6253 12.4985 40.6253ZM17.186 25.7815C16.5679 25.7815 15.9637 25.5983 15.4498 25.2549C14.9359 24.9115 14.5354 24.4234 14.2988 23.8524C14.0623 23.2814 14.0004 22.6531 14.121 22.0469C14.2416 21.4407 14.5392 20.8839 14.9763 20.4468C15.4133 20.0098 15.9701 19.7122 16.5763 19.5916C17.1825 19.471 17.8108 19.5329 18.3818 19.7694C18.9529 20.0059 19.4409 20.4065 19.7843 20.9204C20.1277 21.4343 20.311 22.0385 20.311 22.6565C20.311 23.4853 19.9817 24.2802 19.3957 24.8662C18.8096 25.4523 18.0148 25.7815 17.186 25.7815ZM27.3422 35.9378C26.7241 35.9378 26.12 35.7545 25.6061 35.4111C25.0922 35.0677 24.6916 34.5797 24.4551 34.0087C24.2186 33.4377 24.1567 32.8093 24.2773 32.2031C24.3978 31.5969 24.6955 31.0401 25.1325 30.6031C25.5695 30.166 26.1264 29.8684 26.7326 29.7478C27.3387 29.6273 27.9671 29.6891 28.5381 29.9257C29.1091 30.1622 29.5972 30.5627 29.9406 31.0766C30.2839 31.5905 30.4672 32.1947 30.4672 32.8128C30.4672 33.6416 30.138 34.4364 29.5519 35.0225C28.9659 35.6085 28.171 35.9378 27.3422 35.9378Z" fill="white"/>
</svg>
