<svg width="50" height="36" viewBox="0 0 50 36" fill="none" xmlns="http://www.w3.org/2000/svg">
<path d="M5.52616 0H44.4738C48.1482 0 50 1.73427 50 5.26161V30.0118C50 33.5097 48.1482 35.2734 44.4738 35.2734H5.52616C1.85185 35.2734 0 33.5097 0 30.0118V5.26161C0 1.73427 1.85185 0 5.52616 0ZM24.9853 25.2792L44.7972 9.0241C45.5026 8.43621 46.0611 7.08407 45.1793 5.87889C44.3269 4.67372 42.769 4.64433 41.7402 5.37919L24.9853 16.7255L8.25985 5.37919C7.23104 4.64433 5.67313 4.67372 4.82069 5.87889C3.93886 7.08407 4.49735 8.43621 5.20282 9.0241L24.9853 25.2792Z" fill="white"/>
</svg>
