<svg width="50" height="50" viewBox="0 0 50 50" fill="none" xmlns="http://www.w3.org/2000/svg">
<path fill-rule="evenodd" clip-rule="evenodd" d="M48.1875 1.81246C50.6042 4.22907 50.6042 8.14717 48.1875 10.5638L10.5638 48.1875C8.14717 50.6042 4.22907 50.6042 1.81246 48.1875C-0.604153 45.7709 -0.604153 41.8528 1.81246 39.4362L39.4362 1.81246C41.8528 -0.604153 45.7709 -0.604153 48.1875 1.81246Z" fill="white"/>
<path fill-rule="evenodd" clip-rule="evenodd" d="M1.81246 1.81246C-0.604154 4.22907 -0.604154 8.14717 1.81246 10.5638L39.4362 48.1875C41.8528 50.6042 45.7709 50.6042 48.1875 48.1875C50.6042 45.7709 50.6042 41.8528 48.1875 39.4362L10.5638 1.81246C8.14717 -0.604153 4.22907 -0.604153 1.81246 1.81246Z" fill="white"/>
</svg>
