<svg width="236" height="50" viewBox="0 0 236 50" fill="none" xmlns="http://www.w3.org/2000/svg">
<path d="M48.9754 1.43443C48.9754 1.84426 48.7705 1.84426 48.3607 1.84426C47.9508 1.84426 46.7213 2.04918 44.6721 2.04918C43.4426 2.04918 42.623 2.2541 42.418 2.86885C42.2131 3.07377 42.2131 4.71311 42.2131 7.37705V15.3689C42.2131 20.6967 42.2131 27.8689 42.2131 36.4754V48.3607C42.2131 49.1803 42.0082 49.5902 41.8033 49.5902C41.1885 49.5902 37.9098 45.6967 31.7623 38.1148C25.6148 30.5328 18.6475 21.7213 11.2705 11.6803V16.8033C11.2705 18.6475 11.2705 20.082 11.2705 21.3115V45.2869C11.2705 46.3115 11.4754 46.9262 12.0902 47.1311C13.1148 47.541 14.1393 47.7459 15.5738 47.7459C17.0082 47.7459 18.0328 47.9508 18.2377 48.1557V48.3607C18.2377 48.7705 17.8279 48.9754 17.2131 48.9754C16.8033 48.9754 16.3934 48.9754 16.1885 48.9754C14.5492 48.9754 12.7049 48.7705 10.8607 48.7705C9.22131 48.7705 7.17213 48.7705 4.5082 48.9754C3.27869 48.9754 2.66393 48.9754 2.86885 48.9754C2.2541 48.9754 1.84426 48.7705 1.84426 48.3607C1.84426 47.9508 2.86885 47.7459 4.91803 47.7459C7.37705 47.541 8.60656 47.1311 9.01639 46.7213C9.22131 46.3115 9.42623 44.6721 9.42623 41.8033V13.1148C9.42623 10.2459 9.42623 8.40164 9.22131 7.78688C9.01639 5.7377 8.19672 4.30328 6.76229 3.27869C5.7377 2.66393 3.89344 2.2541 1.02459 2.04918C0.409837 2.04918 0 1.84426 0 1.43443C0 1.02459 0.409837 0.819671 1.02459 0.819671C1.22951 0.819671 2.2541 0.819672 4.09836 1.02459C4.91803 1.02459 6.14754 1.02459 7.78688 1.02459C11.2705 1.02459 13.9344 1.02459 16.1885 0.819671L40.5738 32.1721V4.71311C40.5738 3.68852 40.3689 2.86885 39.959 2.66393C39.5492 2.45901 38.7295 2.2541 37.5 2.04918L34.4262 1.84426C33.8115 1.84426 33.6066 1.63934 33.6066 1.43443C33.6066 1.02459 34.0164 0.819671 34.8361 0.819671H36.2705C36.4754 0.819671 37.0902 0.819671 37.7049 0.819671H39.3443C44.0574 0.819671 46.7213 0.819671 47.541 0.819671C48.5656 1.02459 48.9754 1.22951 48.9754 1.43443ZM67.6229 9.42623C67.6229 13.7295 65.9836 16.8033 62.7049 18.8525C60.6557 20.082 58.6066 20.6967 56.7623 20.6967C56.3525 20.6967 56.3525 20.4918 56.3525 20.2869C56.3525 20.082 56.5574 19.877 56.9672 19.877C62.2951 18.6475 64.959 15.9836 64.959 11.6803C64.959 9.22131 64.1393 7.37705 62.2951 6.14754C62.2951 8.81148 61.0656 10.041 58.8115 10.041C57.582 10.041 56.5574 9.63115 55.7377 8.81147C54.918 7.9918 54.5082 6.96721 54.5082 5.53279C54.5082 4.09836 55.123 2.86885 56.1475 1.84426C57.1721 0.819671 58.6066 0.409836 60.4508 0.409836C62.7049 0.409836 64.5492 1.22951 65.7787 2.86885C66.8033 4.71311 67.6229 6.76229 67.6229 9.42623ZM120.082 25C120.082 31.9672 117.828 37.9098 113.525 42.6229C109.221 47.3361 103.893 49.7951 97.541 49.7951C91.3934 49.7951 86.0656 47.3361 81.5574 42.418C77.0492 37.5 75 31.7623 75 24.7951C75 17.8279 77.2541 11.8852 81.5574 7.17213C85.8607 2.45902 91.3934 0 97.9508 0C104.303 0 109.426 2.45902 113.73 7.17213C118.033 11.8852 120.082 17.8279 120.082 25ZM107.787 26.0246C107.787 16.8033 106.762 10.041 104.508 5.53279C103.074 2.66393 100.82 1.22951 97.7459 1.22951C94.6721 1.22951 92.0082 3.27869 90.1639 7.37705C88.3197 11.4754 87.2951 16.8033 87.2951 23.5656C87.2951 33.4016 88.9344 40.7787 92.2131 45.6967C93.6475 47.7459 95.6967 48.7705 98.3607 48.7705C101.434 48.7705 103.484 47.3361 104.918 44.4672C106.967 39.7541 107.787 33.6066 107.787 26.0246ZM150.615 23.1557C150.615 24.5902 150.205 25.6148 149.385 26.4344C148.566 27.2541 147.541 27.6639 146.311 27.6639C143.852 27.6639 142.623 26.4344 142.623 24.1803C142.623 23.3607 142.828 22.541 143.443 21.7213C143.648 21.5164 143.648 21.3115 143.648 21.3115C143.648 20.9016 143.443 20.6967 142.828 20.6967C141.189 20.6967 139.959 21.9262 139.139 24.3852C138.729 25.8197 138.525 29.0984 138.525 34.6311V39.7541V45.9016C138.525 47.1311 139.139 47.7459 140.369 47.9508C141.189 47.9508 142.008 47.9508 143.033 47.9508C143.443 47.9508 143.852 48.1557 143.852 48.3607C143.852 48.7705 143.648 48.9754 143.238 48.9754H141.803C141.393 48.9754 139.344 48.9754 135.656 48.9754C135.861 48.9754 134.836 48.9754 132.582 48.9754H129.098H126.434C125.82 48.9754 125.41 48.9754 124.795 48.9754C124.18 48.9754 123.975 48.7705 123.975 48.5656C123.975 48.1557 124.385 48.1557 125 48.1557C126.844 48.1557 128.074 47.9508 128.484 47.541C128.893 47.1311 129.098 46.1066 129.098 44.4672V25.6148C129.098 23.9754 128.893 22.9508 128.484 22.3361C128.074 21.7213 127.049 21.3115 125.615 21.3115C124.385 21.3115 123.77 21.1066 123.566 21.1066C123.361 21.1066 123.361 20.9016 123.361 20.6967C123.361 20.4918 123.566 20.2869 123.975 20.2869C124.385 20.2869 124.795 20.2869 125.205 20.2869H126.639C130.123 20.2869 134.016 19.4672 138.115 18.0328C138.32 19.0574 138.525 20.082 138.525 21.3115V24.1803C139.344 21.9262 140.369 20.2869 141.393 19.4672C142.418 18.4426 143.852 18.0328 145.492 18.0328C147.131 18.0328 148.361 18.4426 149.385 19.4672C150.41 20.4918 150.615 21.7213 150.615 23.1557ZM181.762 40.5738C181.762 41.5984 181.148 43.0328 179.918 44.6721C177.254 48.1557 173.975 50 169.672 50C164.959 50 161.066 48.5656 158.197 45.4918C155.123 42.418 153.689 38.7295 153.689 34.0164C153.689 29.5082 155.123 25.6148 157.992 22.541C160.861 19.4672 164.549 18.0328 168.852 18.0328C171.721 18.0328 174.385 18.6475 176.434 20.082C178.689 21.5164 180.328 23.5656 180.943 26.2295C181.148 27.0492 181.352 28.0738 181.352 29.3033C180.328 29.3033 176.025 29.5082 168.443 29.5082C167.213 29.5082 165.779 29.5082 164.139 29.7131C163.934 31.1475 163.934 32.582 163.934 34.0164C163.934 39.5492 165.164 43.2377 167.418 45.4918C168.852 46.9262 170.492 47.541 172.336 47.541C173.975 47.541 175.615 46.9262 177.049 45.9016C178.484 44.877 179.713 43.2377 180.533 41.5984C180.943 40.7787 181.148 40.3688 181.352 40.3688C181.762 39.959 181.762 40.1639 181.762 40.5738ZM173.156 28.2787C173.156 24.7951 172.951 22.1311 172.336 20.9016C171.721 19.6721 170.902 18.8525 169.467 18.8525C166.598 18.8525 164.959 22.1311 164.549 28.4836C165.574 28.4836 167.623 28.4836 170.697 28.4836C171.516 28.2787 172.336 28.2787 173.156 28.2787ZM215.984 45.2869C215.984 45.6967 215.574 46.1066 214.959 46.7213C212.91 48.5656 210.451 49.3852 207.582 49.3852C205.738 49.3852 204.303 48.9754 203.484 48.1557C202.664 47.3361 202.049 45.9016 201.844 43.8525C199.795 47.7459 196.926 49.5902 193.238 49.5902C191.189 49.5902 189.549 48.9754 188.32 47.7459C187.09 46.5164 186.475 44.877 186.475 42.8279C186.475 36.8852 191.393 33.6066 201.434 32.377V30.9426C201.434 26.2295 201.229 23.3607 201.025 22.3361V21.9262C200.41 19.6721 198.77 18.4426 196.107 18.4426C194.672 18.4426 193.443 18.8525 192.418 19.6721C191.393 20.4918 190.984 21.5164 190.984 22.3361C190.984 22.7459 191.598 23.1557 192.623 23.1557C194.262 23.3607 195.082 24.3852 195.082 26.2295C195.082 27.2541 194.672 28.0738 194.057 28.6885C193.443 29.3033 192.418 29.7131 191.393 29.7131C189.959 29.7131 188.934 29.3033 188.115 28.4836C187.295 27.6639 186.885 26.6393 186.885 25.4098C186.885 23.3607 187.91 21.5164 189.959 19.877C192.008 18.2377 194.672 17.418 197.746 17.418C202.664 17.418 205.943 18.2377 207.787 20.082C209.221 21.5164 210.041 23.9754 210.041 27.6639V39.5492C210.041 41.8033 210.041 43.2377 210.041 43.6475C210.246 45.6967 210.861 46.5164 212.09 46.5164C212.91 46.5164 213.934 45.9016 214.959 44.877C215.164 44.6721 215.369 44.4672 215.574 44.4672C215.984 44.877 215.984 45.082 215.984 45.2869ZM201.434 37.0902V33.6066C196.926 34.4262 194.672 37.0902 194.672 41.1885C194.672 44.4672 195.697 46.1066 197.951 46.1066C199.18 46.1066 200 45.4918 200.615 44.0574C201.229 42.6229 201.434 40.3689 201.434 37.0902ZM235.451 48.5656C235.451 48.9754 234.631 49.1803 232.787 49.1803C232.377 49.1803 231.148 49.1803 228.893 48.9754C227.869 48.9754 226.639 48.9754 225.615 48.9754C224.59 48.9754 222.746 48.9754 219.877 49.1803H217.828C216.803 49.1803 216.393 48.9754 216.393 48.7705C216.393 48.5656 217.008 48.1557 218.033 48.3607C219.672 48.3607 220.697 48.1557 220.902 47.9508C221.107 47.541 221.311 46.1066 221.311 43.8525V6.76229C221.311 5.12295 221.107 4.30328 220.902 3.89344C220.492 3.68852 219.672 3.48361 218.033 3.48361C216.803 3.48361 216.393 3.27869 216.393 3.07377C216.393 2.66393 217.008 2.45902 218.238 2.45902C223.361 2.2541 227.664 1.43443 230.943 0C230.943 1.43443 230.943 9.63115 230.943 24.3852V41.8033C230.943 44.877 230.943 46.7213 231.148 47.3361C231.352 47.9508 231.967 48.1557 232.787 48.1557H234.836C235.246 47.9508 235.451 48.1557 235.451 48.5656Z" fill="#131313"/>
</svg>
