<svg width="202" height="50" viewBox="0 0 202 50" fill="none" xmlns="http://www.w3.org/2000/svg">
<path d="M55.364 27.5862C55.5556 27.2031 55.9387 27.2031 56.5134 27.5862C57.0881 27.7778 57.4713 28.1609 58.046 28.7357C58.6207 29.3104 59.0038 29.6935 59.387 30.2682C59.7701 30.8429 59.7701 31.2261 59.7701 31.6092C58.8123 33.3334 57.6628 35.0575 56.3218 37.3564C54.7893 39.4636 53.2567 41.3793 51.5326 43.2951C49.8084 45.2108 47.8927 46.7433 45.977 48.0843C44.0613 49.4253 42.1456 50 40.2299 50C39.6552 50 38.8889 49.8085 38.1226 49.4253C37.3563 49.0422 36.59 48.4675 36.0153 47.7012C35.4406 47.1265 34.8659 46.3602 34.2912 45.5939C33.908 44.8276 33.5249 44.2529 33.5249 43.6782C33.5249 42.7203 33.908 41.3793 34.4828 39.8468C35.0575 38.3142 35.8238 36.7816 36.9732 34.8659C37.931 33.1418 38.8889 31.2261 40.0383 29.3104C40.9962 27.3947 42.1456 25.479 42.9119 23.5632C39.272 27.0115 36.0153 30.2682 33.5249 33.3334C31.0345 36.3985 28.7356 39.2721 27.2031 41.5709C25.4789 44.0613 24.3295 45.977 23.3716 47.318C22.6054 48.8506 22.0307 49.4253 21.8391 49.4253C21.6475 49.4253 21.0728 49.2337 20.4981 49.0422C19.9234 48.659 19.3487 48.2759 18.7739 47.8928C18.1992 47.5096 17.6245 46.9349 17.2414 46.3602C16.8582 45.7855 16.6667 45.2108 16.6667 44.636C16.6667 44.2529 17.0498 43.4866 17.6245 42.1456C18.3908 40.8046 19.1571 39.2721 20.1149 37.3564C21.0728 35.4406 22.2222 33.5249 23.3716 31.2261C24.5211 28.9272 25.6705 26.82 26.8199 24.7127C22.6054 28.7357 19.1571 32.1839 16.6667 35.2491C13.9847 38.3142 12.069 40.9962 10.3448 42.9119C9.1954 44.4445 8.04598 45.977 6.89655 47.7012C5.74713 49.2337 5.17241 49.8085 4.78927 49.8085C4.40613 49.8085 3.83142 49.6169 3.2567 49.2337C2.68199 48.8506 2.10728 48.4675 1.72414 47.8928C1.341 47.5096 0.766283 46.9349 0.383141 46.3602C0.191571 45.977 0 45.5939 0 45.4023C0 45.4023 0.19157 44.8276 0.766283 43.8698C1.14942 42.9119 1.72414 41.5709 2.49042 40.0383C3.25671 38.5058 4.02299 36.7816 4.98084 34.8659C5.9387 32.9502 6.89655 31.0345 7.85441 28.9272C8.81226 27.0115 9.77012 24.9042 10.728 22.9885C11.6858 21.0728 12.4521 19.3487 13.2184 17.8161C13.9847 16.2836 14.5594 14.9426 14.9425 13.9847C15.3257 13.0268 15.7088 12.4521 15.7088 12.2606C15.7088 11.6859 15.9004 11.4943 16.4751 11.6859C17.0498 11.6859 17.6245 12.069 18.1992 12.4521C18.7739 12.8353 19.3487 13.2184 19.9234 13.7931C20.4981 14.3678 20.6897 14.751 20.6897 15.1341C20.6897 15.3257 20.4981 15.9004 20.1149 16.8583C19.7318 17.8161 19.1571 19.1571 18.5824 20.4981L16.2835 25.479C15.5172 27.2031 14.5594 29.1188 13.7931 30.8429C15.5172 28.9272 17.2414 27.0115 19.1571 25.0958C21.0728 23.1801 22.7969 21.456 24.3295 19.9234C25.8621 18.3908 27.3946 17.0498 28.5441 15.9004C29.6935 14.751 30.6513 13.9847 31.0345 13.7931L31.2261 13.6016C31.6092 13.6016 31.9923 13.7931 32.567 14.1763C33.1418 14.5594 33.5249 14.9426 33.908 15.5173C34.2912 16.092 34.6743 16.6667 35.0575 17.2414C35.4406 17.8161 35.4406 18.3908 35.4406 18.9655C35.4406 19.1571 35.249 19.7318 35.0575 20.3065C34.8659 20.8813 34.4828 21.6475 34.0996 22.6054C33.7165 23.5632 33.3333 24.5211 32.7586 25.479C32.1839 26.6284 31.8008 27.5862 31.2261 28.7357C32.7586 27.2031 34.0996 25.479 35.8238 23.9464C37.3563 22.2223 38.8889 20.6897 40.2299 19.3487C41.5709 18.0077 42.7203 16.6667 43.6782 15.7088C44.636 14.751 45.4023 14.1763 45.7854 13.9847C45.7854 13.9847 45.7854 13.9847 45.977 13.9847H46.1686H46.3602C46.5517 14.1763 46.9349 14.3678 47.5096 14.751C48.659 15.5173 49.4253 16.6667 50 17.8161C50.3831 18.5824 50.3831 19.3487 50.3831 20.115C50.3831 20.6897 50.1916 21.6475 49.6169 22.9885C49.0421 24.3295 48.4674 25.8621 47.7012 27.2031C46.9349 28.7357 46.1686 30.2682 45.2107 31.9924C44.2529 33.7165 43.4866 35.2491 42.7203 36.7816C41.954 38.1226 41.3793 39.4636 40.8046 40.9962C40.2299 42.1456 40.0383 43.1035 40.0383 43.8698C41.1877 43.8698 42.3372 43.4866 43.8697 42.5288C45.2107 41.5709 46.5517 40.4215 48.0843 39.0805C49.6169 37.5479 50.9579 35.8238 52.2988 34.0996C52.8736 31.6092 54.2146 29.6935 55.364 27.5862ZM5.36398 36.7816C5.55556 36.5901 5.55556 36.3985 5.74713 36.2069C5.9387 36.0154 5.9387 35.8238 6.13027 35.6322C6.13027 35.4406 6.32184 35.2491 6.51341 34.8659C6.70498 34.6744 6.70498 34.2912 6.89655 34.0996L7.47126 32.7587C7.66283 32.5671 7.66284 32.3755 7.66284 32.1839C7.85441 31.9924 7.85441 31.8008 7.85441 31.6092C8.04598 31.4177 8.04598 31.2261 8.04598 31.0345C8.04598 30.8429 8.23755 30.6514 8.23755 30.6514C8.23755 30.4598 8.42912 30.4598 8.42912 30.2682C8.42912 30.2682 8.23755 30.4598 8.23755 30.6514C8.23755 30.8429 8.04598 31.0345 7.85441 31.4177C7.66284 31.8008 7.47126 32.1839 7.27969 32.5671C7.08812 32.7587 7.08812 32.9502 6.89655 33.3334C6.70498 33.5249 6.70498 33.9081 6.51341 34.0996L5.9387 35.4406L5.74713 36.0154C5.55556 36.3985 5.36398 36.5901 5.36398 36.7816C5.17241 36.9732 4.98084 37.1648 4.98084 37.3564C4.98084 37.5479 4.98084 37.5479 4.78927 37.7395C4.78927 37.9311 4.78927 37.9311 4.5977 38.1226C4.5977 38.1226 4.78927 37.9311 4.78927 37.7395C4.98084 37.7395 4.98084 37.5479 4.98084 37.3564C5.17241 37.1648 5.36398 36.9732 5.36398 36.7816ZM7.66284 30.6514C7.47126 31.2261 7.27969 31.6092 7.08812 31.9924C6.89655 32.3755 6.70498 32.7587 6.70498 32.9502C6.51341 33.3334 6.51341 33.5249 6.32184 33.7165C6.51341 33.3334 6.51341 33.1418 6.70498 32.9502C6.89655 32.7587 7.08812 32.3755 7.08812 31.9924C7.27969 31.6092 7.47126 31.2261 7.66284 30.6514L8.62069 29.1188C8.81226 28.5441 9.1954 27.9694 9.38697 27.3947C9.57854 26.82 9.96169 26.2452 10.1533 25.6705L10.9195 23.7548L11.6858 21.8391C11.8774 21.2644 12.2605 20.6897 12.4521 19.9234C12.6437 19.3487 13.0268 18.774 13.2184 18.1993C13.41 17.6245 13.6015 17.2414 13.9847 16.6667L14.751 14.3678C14.751 14.1763 14.751 14.1763 14.9425 13.9847L15.1341 13.7931V13.6016C15.1341 13.7931 14.9425 14.1763 14.751 14.3678C14.3678 15.1341 14.1762 15.9004 13.7931 16.6667C13.6015 17.2414 13.41 17.6245 13.0268 18.1993C12.8352 18.774 12.4521 19.3487 12.2605 19.9234C12.069 20.4981 11.6858 21.0728 11.4943 21.8391L10.728 23.7548C10.1533 25.0958 9.57854 26.2452 9.00383 27.3947C8.62069 28.5441 8.04598 29.6935 7.66284 30.6514ZM7.66284 33.9081C8.04598 33.3334 8.23755 32.5671 8.62069 31.9924C9.00383 31.2261 9.38697 30.4598 9.77012 29.6935C9.96169 29.3104 10.1533 28.9272 10.3448 28.5441C10.5364 28.1609 10.728 27.7778 10.728 27.3947C10.9195 27.0115 11.1111 26.6284 11.1111 26.4368C11.3027 26.0537 11.3027 25.6705 11.4943 25.479C11.6858 25.0958 11.6858 24.9042 11.6858 24.7127C11.8774 24.5211 11.8774 24.3295 11.8774 24.138V23.9464V23.7548C11.8774 23.7548 11.8774 23.7548 11.8774 23.5632C11.8774 23.5632 11.8774 23.5632 11.8774 23.7548C11.8774 23.7548 11.8774 23.9464 11.6858 23.9464C11.6858 23.9464 11.6858 24.138 11.4943 24.138L11.1111 24.7127C10.9195 24.9042 10.9195 25.0958 10.728 25.479C10.3448 26.0537 10.1533 26.82 9.77012 27.3947C9.57854 27.7778 9.38697 28.1609 9.1954 28.5441C9.57854 28.7357 9.57854 29.1188 9.38697 29.5019C9.1954 29.8851 9.00383 30.2682 8.81226 30.6514C8.62069 31.0345 8.42912 31.4177 8.23755 31.8008C8.04598 32.1839 7.85441 32.5671 7.85441 32.7587C7.66284 33.1418 7.66283 33.3334 7.47126 33.7165C7.27969 33.9081 7.27969 34.2912 7.08812 34.4828C7.08812 34.6744 6.89655 34.8659 6.89655 35.0575C6.89655 35.2491 6.70498 35.2491 6.70498 35.4406C6.70498 35.4406 6.70498 35.4406 6.70498 35.6322C6.89655 35.4406 6.89655 35.2491 7.08812 35.0575C7.08812 34.8659 7.27969 34.6744 7.47126 34.4828C7.27969 34.4828 7.47126 34.2912 7.66284 33.9081ZM22.2222 22.4138C22.6054 22.0307 22.9885 21.6475 23.1801 21.456C23.3716 21.0728 23.7548 20.8813 23.9464 20.6897C24.1379 20.4981 24.3295 20.115 24.5211 19.9234L23.7548 20.4981C23.5632 20.6897 23.1801 21.0728 22.9885 21.2644C22.7969 21.6475 22.4138 22.0307 22.2222 22.4138C21.6475 22.6054 21.2644 22.9885 20.8812 23.5632L19.5402 24.9042C19.1571 25.479 18.5824 25.8621 18.1992 26.2452C17.8161 26.82 17.2414 27.2031 16.8582 27.7778C15.9004 28.7357 14.9425 29.6935 14.1762 30.6514C13.7931 31.2261 13.2184 31.6092 12.8352 31.9924C12.4521 32.3755 12.069 32.9502 11.6858 33.1418C11.3027 33.5249 11.1111 33.9081 10.728 34.2912C10.5364 34.6744 10.3448 34.8659 9.96169 35.0575C9.96169 35.2491 9.77012 35.2491 9.77012 35.4406L9.57854 35.6322L9.38697 35.8238C9.57854 35.6322 9.77011 35.4406 9.96169 35.0575C10.1533 34.8659 10.5364 34.4828 10.728 34.2912C10.9195 33.9081 11.3027 33.7165 11.6858 33.3334C12.4521 32.5671 13.41 31.6092 14.1762 30.8429C15.1341 29.8851 16.092 28.9272 17.0498 27.9694C18.0077 27.0115 18.9655 26.0537 19.9234 25.0958C20.6897 24.138 21.4559 23.1801 22.2222 22.4138ZM23.7548 31.4177C23.9464 30.8429 24.3295 30.4598 24.3295 30.0767C24.3295 29.8851 24.5211 29.6935 24.5211 29.5019C24.5211 29.6935 24.3295 29.8851 24.3295 30.0767C24.3295 30.2682 24.1379 30.4598 23.9464 30.6514C23.9464 30.8429 23.7548 31.0345 23.7548 31.4177C23.1801 31.9924 22.7969 32.5671 22.6054 33.3334C22.4138 33.7165 22.2222 34.0996 22.0307 34.4828C21.8391 34.8659 21.6475 35.2491 21.4559 35.6322C21.2644 36.0154 21.0728 36.3985 20.8812 36.7816C20.6897 37.1648 20.4981 37.5479 20.3065 37.9311C19.9234 38.5058 19.5402 39.2721 19.3487 39.8468L18.7739 41.1878C18.7739 41.3793 18.5824 41.5709 18.5824 41.7625L18.7739 41.1878C18.9655 40.8046 19.1571 40.4215 19.5402 39.8468C19.9234 39.2721 20.3065 38.6973 20.6897 37.9311C21.0728 37.1648 21.4559 36.3985 21.8391 35.8238C22.0307 35.4406 22.2222 35.0575 22.4138 34.6744C22.6054 34.2912 22.7969 33.9081 22.9885 33.5249C23.1801 33.1418 23.3716 32.7587 23.5632 32.5671C23.5632 31.9924 23.7548 31.6092 23.7548 31.4177ZM32.9502 21.8391C32.9502 22.0307 32.7586 22.2223 32.7586 22.2223C32.7586 22.4138 32.7586 22.4138 32.567 22.6054C32.567 22.797 32.567 22.797 32.567 22.9885L32.7586 22.797C32.7586 22.797 32.7586 22.6054 32.9502 22.4138C32.9502 22.2223 32.9502 22.0307 32.9502 21.8391C33.1418 21.6475 33.3333 21.2644 33.5249 20.8813C33.7165 20.4981 33.908 20.115 33.908 19.7318C34.0996 19.3487 34.0996 18.774 34.0996 18.3908C34.0996 18.1993 34.0996 18.1993 34.0996 18.0077C34.0996 17.8161 34.0996 17.8161 34.0996 17.6245C34.0996 17.433 33.908 17.2414 33.908 17.0498C33.7165 16.6667 33.7165 16.4751 33.5249 16.2836V16.092V16.2836C33.5249 16.2836 33.7165 16.4751 33.7165 16.6667C33.7165 16.8583 33.7165 16.8583 33.908 17.0498C33.908 17.2414 34.0996 17.433 34.0996 17.6245C34.0996 17.8161 34.0996 18.0077 34.0996 18.1993C34.0996 18.5824 34.0996 19.1571 33.908 19.5403C33.908 19.7318 33.7165 19.9234 33.7165 20.115C33.7165 20.3065 33.5249 20.4981 33.5249 20.6897C33.5249 20.8813 33.3333 21.0728 33.3333 21.2644C33.1418 21.456 32.9502 21.6475 32.9502 21.8391ZM37.7395 22.0307C37.931 21.6475 38.3142 21.2644 38.6973 21.0728C39.0805 20.6897 39.272 20.4981 39.6552 20.115C39.8467 19.7318 40.2299 19.5403 40.4215 19.1571C40.613 18.9655 40.9962 18.5824 41.1877 18.3908C41.3793 18.1993 41.5709 18.0077 41.7624 17.8161C41.954 17.6246 42.1456 17.433 42.1456 17.2414L42.3372 17.0498C42.3372 17.0498 42.3372 16.8583 42.5287 16.8583L42.7203 16.6667L42.1456 17.2414C41.954 17.433 41.7625 17.6246 41.5709 17.8161C41.3793 18.0077 41.1877 18.1993 40.8046 18.3908C40.613 18.5824 40.2299 18.774 40.0383 19.1571C39.6552 19.3487 39.4636 19.7318 39.272 19.9234C39.0805 20.3065 38.6973 20.4981 38.3142 20.8813C37.931 21.0728 37.7395 21.456 37.3563 21.8391C36.9732 22.2223 36.7816 22.6054 36.3985 22.797C36.2069 23.1801 35.8238 23.3717 35.4406 23.7548C35.249 24.138 35.0575 24.3295 34.6743 24.7127C34.4828 24.9042 34.0996 25.2874 33.908 25.479C33.7165 25.6705 33.5249 25.8621 33.3333 26.2452C33.1418 26.4368 32.9502 26.6284 32.9502 26.82C32.7586 27.0115 32.567 27.2031 32.567 27.2031L32.9502 26.82C33.1418 26.6284 33.3333 26.4368 33.5249 26.2452C33.7165 26.0537 33.908 25.8621 34.2912 25.479C34.4828 25.2874 34.8659 25.0958 35.0575 24.7127C35.249 24.5211 35.6322 24.138 35.8238 23.7548C36.59 23.1801 37.1648 22.6054 37.7395 22.0307ZM34.8659 39.8468C34.8659 39.6552 35.0575 39.6552 35.0575 39.4636C35.0575 39.2721 35.0575 39.2721 35.249 39.0805C35.249 39.0805 35.249 38.8889 35.4406 38.8889C35.4406 38.8889 35.4406 38.8889 35.4406 39.0805C35.4406 39.0805 35.4406 39.0805 35.4406 39.2721C35.0575 39.2721 34.8659 39.4636 34.8659 39.8468L34.2912 40.8046C34.2912 40.9962 34.0996 41.1878 34.0996 41.3793C34.0996 41.5709 34.0996 41.7625 33.908 41.9541C33.908 42.1456 33.908 42.3372 33.7165 42.5288C33.7165 42.7203 33.7165 42.9119 33.7165 43.1035C33.7165 43.4866 33.7165 43.8698 33.908 44.0613C33.908 44.2529 33.908 44.4445 34.0996 44.4445C34.0996 44.636 34.0996 44.636 34.2912 44.8276L34.4828 45.0192C34.4828 45.0192 34.4828 45.0192 34.4828 44.8276C34.4828 44.636 34.2912 44.4445 34.2912 44.2529C34.2912 43.8698 34.0996 43.4866 34.0996 43.1035C34.0996 42.7203 34.0996 42.3372 34.2912 41.9541C34.2912 41.7625 34.2912 41.5709 34.4828 41.3793C34.4828 41.1878 34.4828 40.9962 34.6743 40.8046C34.6743 40.4215 34.6743 40.0383 34.8659 39.8468ZM38.1226 33.5249C38.3142 33.1418 38.5057 32.7586 38.6973 32.3755L39.4636 31.2261C39.6552 30.8429 39.8467 30.4598 40.0383 30.0767C40.2299 29.6935 40.4215 29.3104 40.613 28.9272C40.8046 28.5441 40.9962 28.161 41.1877 27.9694C41.3793 27.5862 41.5709 27.2031 41.7624 27.0115C41.954 26.6284 41.954 26.4368 42.1456 26.2452C42.3372 26.0537 42.3372 25.8621 42.5287 25.479C42.5287 25.2874 42.7203 25.0958 42.7203 24.9042C42.7203 25.0958 42.5287 25.2874 42.5287 25.479C42.3372 25.6705 42.3372 25.8621 42.1456 26.0537C41.954 26.2452 41.7625 26.6284 41.5709 26.82L40.4215 28.9272C40.2299 29.3104 40.0383 29.6935 39.6552 30.0767C39.4636 30.4598 39.272 30.8429 38.8889 31.2261C38.6973 31.6092 38.5057 31.9924 38.3142 32.3755C38.1226 32.7586 37.931 33.1418 37.7395 33.5249C37.3563 34.2912 36.9732 35.0575 36.59 35.6322C36.59 35.8238 36.3985 36.2069 36.3985 36.3985C36.3985 36.5901 36.2069 36.7816 36.2069 36.9732L36.0153 37.5479C36.0153 37.3564 36.2069 37.1648 36.2069 36.9732C36.2069 36.7816 36.3985 36.5901 36.59 36.3985C36.7816 36.2069 36.9732 35.8238 37.1647 35.6322C37.3563 35.2491 37.5479 34.8659 37.7395 34.6744C37.5479 34.2912 37.931 33.9081 38.1226 33.5249ZM41.954 18.1993C42.1456 17.8161 42.5287 17.6245 42.7203 17.2414C42.9119 16.8583 43.295 16.6667 43.4866 16.4751C43.6782 16.4751 43.6782 16.2836 43.6782 16.092C43.6782 15.9004 43.8697 15.9004 43.8697 15.7088L44.0613 15.5173V15.9004C43.8697 15.9004 43.8697 16.092 43.6782 16.092C43.4866 16.092 43.4866 16.2836 43.295 16.2836C43.1034 16.4751 42.7203 16.6667 42.5287 17.0498C42.1456 17.433 41.954 17.6245 41.7624 18.0077C41.5709 18.3908 41.1877 18.5824 40.9962 18.9655C40.8046 19.3487 40.4215 19.5403 40.2299 19.7318C40.0383 19.9234 39.8467 20.115 39.6552 20.3065L39.4636 20.4981L40.2299 19.7318C40.4215 19.5403 40.8046 19.3487 40.9962 18.9655C41.3793 18.774 41.7625 18.5824 41.954 18.1993Z" fill="#131313"/>
<path d="M72.7969 27.3946C72.9885 27.2031 73.1801 27.2031 73.5632 27.2031C73.9464 27.3946 74.3295 27.5862 74.9042 27.9693C75.2874 28.3525 75.6705 28.7356 76.0536 29.5019C76.4368 30.0766 76.6284 30.8429 76.6284 31.4176C76.6284 31.9923 76.4368 32.7586 75.8621 33.7165C75.2874 35.0575 74.5211 36.2069 73.7548 37.3563C72.7969 38.8889 71.8391 40.2299 70.6897 41.5709C69.5402 43.1034 68.1992 44.2529 66.8582 45.5939C65.5172 46.7433 63.9847 47.7011 62.4521 48.659C60.9195 49.4253 59.387 49.8084 57.8544 49.8084C57.4713 49.8084 56.705 49.6169 55.9387 49.2337C54.9808 48.8506 54.2146 48.2759 53.2567 47.7011C52.4904 47.1264 51.7241 46.3602 50.9579 45.5939C50.3831 44.8276 50 44.0613 50 43.1034C50 42.1456 50.1916 40.8046 50.7663 39.0805C51.341 37.3563 51.9157 35.4406 52.682 33.3333C53.4483 31.2261 54.4061 29.1188 55.364 27.0115C56.3218 24.9042 57.2797 22.9885 58.046 21.2644C58.8123 19.5402 59.5785 18.0077 60.1533 16.8582C60.728 15.7088 61.1111 15.1341 61.3027 14.9425C61.4943 14.5594 62.069 14.5594 62.4521 14.9425C63.0268 15.3257 63.6015 15.7088 63.9847 16.2835C64.5594 16.8582 64.9425 17.4329 65.3257 18.1992C65.7088 18.9655 65.9004 19.5402 65.9004 19.9234C65.9004 20.1149 65.7088 20.8812 65.1341 22.0307C64.5594 23.1801 63.9847 24.7126 63.2184 26.4368C62.4521 28.1609 61.4943 30.0766 60.728 31.9923C59.9617 33.7165 59.1954 35.6322 58.2376 37.3563C57.6628 38.6973 57.0881 40.0383 56.705 41.3793C56.3218 42.5287 56.3218 43.1034 56.705 43.1034C58.6207 43.1034 60.3448 42.5287 61.8774 41.3793C63.41 40.2299 64.9425 38.8889 66.2835 37.1647C67.6245 35.4406 68.7739 33.7165 69.9234 31.9923C71.2644 30.4598 72.0307 28.7356 72.7969 27.3946ZM51.7241 40.4215C51.7241 40.0383 51.9157 39.6552 52.1073 39.272C52.2989 38.8889 52.4904 38.5057 52.682 38.1226C52.8736 37.7395 53.0651 37.1648 53.2567 36.3985C53.2567 36.0153 53.4483 35.8238 53.6398 35.4406C53.8314 35.0575 53.8314 34.8659 54.023 34.4828C54.2146 34.0996 54.2146 33.7165 54.4061 33.5249C54.5977 33.1418 54.7893 32.7586 54.9808 32.567C55.1724 31.8008 55.5556 31.0345 55.9387 30.2682C56.3218 29.5019 56.705 28.7356 57.0881 27.9693C57.4713 27.2031 57.6628 26.4368 58.046 25.6705C58.4291 24.9042 58.6207 24.1379 59.0038 23.3716C59.1954 23.1801 59.1954 22.7969 59.387 22.6054C59.387 22.4138 59.5785 22.2222 59.5785 22.2222C59.5785 22.0307 59.5785 22.0307 59.7701 21.8391C59.7701 21.6475 59.9617 21.4559 59.9617 21.0728C60.1533 20.4981 60.5364 19.9234 60.728 19.3487C60.9195 18.7739 61.1111 18.3908 61.3027 18.1992C61.3027 18.0077 61.4943 17.8161 61.4943 17.8161C61.4943 17.6245 61.4943 17.6245 61.6858 17.433C61.6858 17.2414 61.6858 17.2414 61.8774 17.0498L61.3027 18.0077C61.1111 18.3908 60.9195 18.7739 60.728 19.1571C60.5364 19.7318 60.3448 20.1149 59.9617 20.6897C59.387 21.8391 58.8123 22.9885 58.4291 23.9464C57.8544 25.0958 57.2797 26.4368 56.705 27.7778C55.364 30.6513 54.2146 33.5249 53.2567 36.59C53.0651 37.1648 52.8736 37.7395 52.682 38.3142C52.4904 38.8889 52.2989 39.272 52.2989 39.6552C52.2989 39.8467 52.1073 40.0383 52.1073 40.2299C52.1073 40.4215 52.1073 40.4215 52.1073 40.613C51.7241 40.4215 51.7241 40.4215 51.7241 40.4215ZM54.9808 34.2912C54.9808 33.908 55.1724 33.7165 55.1724 33.5249C55.1724 33.3333 55.364 33.1418 55.364 32.9502C55.364 32.7586 55.5556 32.567 55.5556 32.3755C55.5556 32.567 55.364 32.7586 55.364 32.9502L54.9808 33.5249C54.9808 33.7165 54.9808 33.908 54.9808 34.2912C54.5977 34.8659 54.2146 35.4406 54.023 36.2069L53.2567 38.5057C53.0651 38.8889 53.0651 39.272 52.8736 39.6552C52.682 40.0383 52.682 40.4215 52.4904 40.8046C52.4904 41.1877 52.2989 41.5709 52.2989 41.7624C52.2989 42.1456 52.1073 42.5287 52.1073 42.7203C52.1073 43.1034 51.9157 43.295 51.9157 43.4866V44.2529C51.9157 44.4444 51.9157 44.636 52.1073 44.636C52.1073 44.636 52.1073 44.636 52.1073 44.8276C52.1073 44.8276 52.1073 44.8276 52.1073 44.636C52.1073 44.636 52.1073 44.4444 52.1073 44.2529C52.1073 43.8697 52.1073 43.295 52.2989 42.7203C52.2989 42.3372 52.4904 42.1456 52.4904 41.7624C52.4904 41.3793 52.682 40.9962 52.682 40.8046L53.4483 38.5057C53.4483 38.1226 53.6398 37.7395 53.8314 37.3563C54.023 36.9732 54.023 36.59 54.2146 36.2069C54.4061 35.8238 54.4061 35.4406 54.5977 35.0575C54.7893 34.8659 54.7893 34.6743 54.9808 34.2912ZM67.8161 12.4521C67.6245 12.4521 67.2414 12.2605 66.8582 12.069C66.4751 11.6858 66.092 11.3027 65.7088 10.9195C65.3257 10.5364 65.1341 10.1533 64.751 9.57854C64.5594 9.1954 64.3678 8.81226 64.3678 8.62069C64.3678 8.42912 64.5594 7.85441 64.9425 6.89655C65.3257 5.9387 65.7088 4.98084 66.092 4.02299C66.6667 3.06513 67.0498 2.10728 67.6245 1.14943C68.3908 0.383142 68.7739 0 69.1571 0C69.5402 0 69.9234 0.191571 70.4981 0.766284C71.0728 1.341 71.4559 1.72414 72.0307 2.29885C72.4138 2.87356 72.9885 3.44828 73.1801 4.02299C73.5632 4.5977 73.7548 4.98084 73.7548 5.17241C73.7548 5.36398 73.5632 5.74713 72.9885 6.70498C72.4138 7.47126 71.8391 8.23755 71.0728 9.1954C70.3065 10.1533 69.7318 10.9195 68.9655 11.6858C68.3908 12.2605 68.0077 12.4521 67.8161 12.4521ZM67.433 40.613C67.6245 40.4215 67.8161 40.4215 67.8161 40.2299C68.0077 40.0383 68.1992 39.8467 68.3908 39.6552C68.5824 39.4636 68.7739 39.272 68.9655 39.0805C69.1571 38.8889 69.3487 38.6973 69.5402 38.5057C69.7318 38.3142 69.9234 38.1226 70.1149 37.931C70.3065 37.7395 70.3065 37.5479 70.4981 37.3563L70.8812 36.7816C71.0728 36.59 71.0728 36.3985 71.2644 36.2069C71.2644 36.0153 71.4559 35.8238 71.4559 35.6322C71.4559 35.4406 71.6475 35.4406 71.6475 35.249C71.6475 35.0575 71.6475 35.0575 71.8391 34.8659C71.8391 35.0575 71.6475 35.0575 71.6475 35.249C71.4559 35.4406 71.4559 35.4406 71.4559 35.6322C71.4559 35.8238 71.2644 36.0153 71.2644 36.2069C70.8812 36.59 70.6897 36.9732 70.4981 37.3563L70.1149 37.931C69.9234 38.1226 69.7318 38.3142 69.5402 38.5057C69.3487 38.6973 69.1571 38.8889 68.9655 39.0805C68.7739 39.272 68.5824 39.4636 68.3908 39.6552C68.1992 39.8467 68.0077 40.0383 68.0077 40.2299C67.433 40.2299 67.433 40.4215 67.433 40.613C67.0498 40.8046 66.8582 41.1877 66.6667 41.3793C66.6667 41.5709 66.4751 41.5709 66.4751 41.5709L66.6667 41.3793C66.8582 41.1877 67.0498 40.9962 67.433 40.613ZM72.9885 33.7165C72.9885 33.5249 73.1801 33.3333 73.1801 33.1418C73.1801 32.9502 73.3716 32.7586 73.3716 32.7586L73.5632 32.3755V32.567C73.3717 32.7586 73.3717 32.7586 73.1801 32.9502C72.9885 33.1418 72.9885 33.3333 72.9885 33.7165C72.7969 33.908 72.6054 34.0996 72.4138 34.2912C72.2222 34.4828 72.0307 34.8659 72.0307 35.0575C71.8391 35.249 71.6475 35.6322 71.6475 35.8238C71.4559 36.0153 71.2644 36.3985 71.0728 36.59L69.9234 38.1226C69.7318 38.3142 69.5402 38.6973 69.5402 38.8889C69.3487 39.0805 69.1571 39.272 69.1571 39.4636C68.9655 39.6552 68.9655 39.8467 68.774 40.0383C68.5824 40.2299 68.5824 40.2299 68.3908 40.4215C68.3908 40.613 68.1992 40.613 68.1992 40.613C68.1992 40.613 68.1992 40.613 68.3908 40.613C68.3908 40.613 68.3908 40.613 68.5824 40.4215C68.7739 40.2299 68.7739 40.2299 68.9655 40.0383C69.1571 39.8467 69.3487 39.6552 69.3487 39.4636C69.5402 39.272 69.7318 39.0805 69.7318 38.8889C69.9234 38.6973 70.1149 38.5057 70.3065 38.3142L71.4559 36.7816C71.6475 36.3985 71.8391 36.2069 72.0307 36.0153C72.2222 35.8238 72.4138 35.4406 72.4138 35.249C72.6054 35.0575 72.6054 34.6743 72.7969 34.4828C72.7969 34.0996 72.9885 33.908 72.9885 33.7165Z" fill="#131313"/>
<path d="M104.406 27.5862C104.598 27.203 104.981 27.203 105.556 27.5862C106.13 27.7777 106.705 28.1609 107.088 28.7356C107.663 29.3103 108.046 29.6935 108.429 30.2682C108.812 30.8429 108.812 31.226 108.621 31.6092C107.663 33.3333 106.513 35.0574 105.172 37.3563C103.64 39.4636 102.107 41.3793 100.383 43.295C98.659 45.2107 96.7433 46.7433 94.8276 48.0843C92.9119 49.4253 90.9962 50 89.0805 50C88.5058 50 87.7395 49.8084 86.9732 49.2337C86.2069 48.8505 85.4406 48.2758 84.8659 47.5095C84.2912 46.9348 83.7165 46.1685 83.1418 45.5938C82.7586 44.8276 82.3755 44.2528 82.3755 43.6781C82.3755 42.7203 82.7586 41.3793 83.3333 39.8467C83.9081 38.3141 84.8659 36.59 85.8238 34.8659C86.7816 33.1417 87.7395 31.226 88.8889 29.3103C89.8468 27.3946 90.8046 25.6705 91.7625 23.5632C88.1226 27.0115 84.8659 30.2682 82.1839 33.3333C79.5019 36.3984 77.2031 39.272 75.4789 41.5708C73.7548 44.0613 72.2222 45.977 71.2644 47.318C70.3065 48.8505 69.7318 49.4253 69.5402 49.4253C69.3487 49.4253 68.9655 49.2337 68.3908 49.0421C67.8161 48.659 67.433 48.2758 67.0498 47.8927C66.6667 47.5095 66.2835 46.9348 65.9004 46.3601C65.5173 45.7854 65.3257 45.2107 65.3257 44.636C65.3257 44.2528 65.7088 43.295 66.4751 41.5708C67.433 39.6551 68.1992 37.7394 69.1571 35.8237L72.797 28.544C74.1379 26.0536 75.2874 23.5632 76.4368 21.2643C77.3947 19.3486 78.3525 17.4329 79.1188 15.3256C79.8851 13.6015 80.2682 12.6436 80.2682 12.2605V12.0689C80.2682 11.8774 80.4598 11.6858 80.8429 11.6858C81.2261 11.6858 81.6092 11.8774 82.1839 12.0689C82.7586 12.2605 83.1418 12.6436 83.7165 12.8352C84.0996 13.2184 84.4828 13.6015 84.8659 14.1762C85.2491 14.7509 85.2491 15.1341 85.2491 15.7088C85.2491 15.9003 85.0575 16.4751 84.8659 17.4329C84.4828 18.3908 84.0996 19.3486 83.7165 20.4981C83.1418 21.6475 82.7586 22.9885 81.9924 24.3295C81.4176 25.6705 80.6514 27.203 80.0766 28.544C81.6092 27.0115 83.1418 25.2873 84.6743 23.5632C86.2069 21.839 87.7395 20.3065 89.0805 18.9655C90.2299 17.8161 91.3793 16.4751 92.7203 15.3256C93.6782 14.3678 94.4445 13.7931 94.8276 13.4099C94.8276 13.4099 94.8276 13.4099 95.0192 13.4099C95.0192 13.4099 95.0192 13.4099 95.2107 13.4099C95.2107 13.4099 95.2107 13.4099 95.4023 13.4099C95.5939 13.4099 95.5939 13.4099 95.5939 13.4099C95.7855 13.6015 96.1686 13.7931 96.7433 14.1762C97.1265 14.5594 97.7012 14.9425 98.0843 15.3256C98.4674 15.9003 98.8506 16.4751 99.2337 17.0498C99.6169 17.8161 99.6169 18.5823 99.6169 19.3486C99.6169 19.9233 99.4253 20.8812 98.8506 22.2222C98.2759 23.3716 97.7012 24.9042 96.9349 26.2452C96.1686 27.7777 95.4023 29.3103 94.4445 31.0345C93.4866 32.7586 92.7203 34.2912 91.954 35.8237C91.1878 37.1647 90.613 38.5057 90.0383 40.0383C89.4636 41.1877 89.272 42.1456 89.272 42.9118C90.4215 42.9118 91.5709 42.5287 92.9119 41.5708C94.2529 40.613 95.5939 39.4636 96.9349 38.1226C98.4674 36.59 99.8084 34.8659 101.149 33.1417C101.916 31.6092 103.065 29.6935 104.406 27.5862ZM76.6284 31.4176C76.8199 31.0344 77.0115 30.4597 77.2031 30.0766C77.3947 29.6935 77.5862 29.1187 77.7778 28.7356C77.9694 28.1609 78.1609 27.7777 78.3525 27.3946C78.5441 27.0115 78.7356 26.4367 78.9272 26.0536L79.5019 24.9042L79.8851 23.7548C80.0766 23.3716 80.0766 23.18 80.2682 22.7969L80.6514 22.0306V21.839V21.6475V21.4559L77.5862 28.7356C77.2031 29.5019 76.8199 30.4597 76.6284 31.4176C76.0537 32.1839 75.6705 32.9502 75.2874 33.7164C75.0958 34.0996 74.9042 34.2912 74.9042 34.6743L74.5211 35.4406C74.3295 35.6322 74.3295 35.8237 74.3295 36.0153C74.3295 35.8237 74.5211 35.6322 74.7127 35.4406L75.4789 33.908C75.6705 33.5249 75.8621 33.1417 76.0537 32.7586C76.2452 32.1839 76.4368 31.8007 76.6284 31.4176ZM78.9272 28.1609C78.9272 27.9693 78.9272 27.9693 78.9272 28.1609C79.1188 27.9693 79.1188 27.9693 79.1188 27.7777C79.1188 27.7777 79.1188 27.5862 79.3104 27.5862C79.5019 27.203 79.8851 26.8199 80.0766 26.0536C80.2682 25.6705 80.4598 25.4789 80.6514 25.0958C80.8429 24.7126 81.0345 24.3295 81.2261 24.1379L81.8008 22.9885C81.9924 22.6053 82.1839 22.2222 82.3755 21.839C82.5671 21.4559 82.7586 21.0728 82.9502 20.6896C83.1418 20.3065 83.1418 19.9233 83.3333 19.5402C83.5249 19.1571 83.5249 18.7739 83.7165 18.3908C83.9081 18.0076 83.9081 17.6245 84.0996 17.4329C84.2912 16.8582 84.2912 16.2835 84.2912 15.7088V15.5172V15.3256C84.2912 15.3256 84.2912 15.3256 84.2912 15.1341V15.3256V15.7088C84.2912 15.7088 84.2912 15.9003 84.2912 16.0919C84.2912 16.2835 84.2912 16.2835 84.2912 16.4751C84.2912 16.6666 84.0996 16.6666 84.0996 16.8582C84.0996 17.0498 84.0996 17.2413 83.9081 17.2413C83.9081 17.6245 83.7165 18.0076 83.5249 18.1992C83.3333 18.5823 83.1418 18.9655 83.1418 19.3486C82.9502 19.7318 82.7586 20.1149 82.5671 20.4981C82.3755 20.8812 82.1839 21.2643 81.9924 21.6475C81.8008 22.0306 81.6092 22.4138 81.4176 22.7969C81.2261 23.18 81.0345 23.5632 81.0345 23.9463C80.8429 24.3295 80.6514 24.7126 80.4598 25.0958C80.2682 25.4789 80.2682 25.6705 80.0766 26.0536C80.0766 26.4367 79.8851 26.6283 79.8851 27.0115C79.8851 27.203 79.6935 27.3946 79.6935 27.5862C79.1188 27.5862 78.9272 28.1609 78.9272 28.1609ZM84.6743 38.8889C84.8659 38.5057 85.0575 38.1226 85.2491 37.7394C85.4406 37.3563 85.6322 36.9731 85.8238 36.59C86.0153 36.2069 86.2069 35.8237 86.3985 35.4406C86.5901 35.0574 86.7816 34.6743 86.9732 34.2912C87.3563 33.3333 87.7395 32.7586 88.1226 32.1839C88.3142 31.8007 88.3142 31.6092 88.5058 31.226C88.5058 31.0344 88.6973 30.8429 88.6973 30.6513C88.6973 30.4597 88.8889 30.4597 88.8889 30.2682C88.8889 30.2682 88.8889 30.2682 88.8889 30.0766C88.8889 30.0766 88.8889 30.0766 88.8889 30.2682C88.6973 30.4597 88.6973 30.4597 88.6973 30.6513C88.6973 30.8429 88.5058 31.0344 88.3142 31.226C88.1226 31.4176 87.931 31.8007 87.7395 31.9923C87.5479 32.3754 87.3563 32.567 87.1648 32.9502C86.9732 33.3333 86.7816 33.7164 86.5901 33.908C86.3985 34.2912 86.2069 34.6743 86.0153 35.0574C85.8238 35.4406 85.6322 35.8237 85.4406 36.2069C85.2491 36.59 85.0575 36.9731 84.8659 37.3563C84.6743 37.7394 84.4828 38.1226 84.2912 38.5057C84.2912 38.6973 84.0996 38.8889 84.0996 39.0804C84.0996 39.272 83.9081 39.4636 83.9081 39.6551C83.9081 39.8467 83.7165 40.0383 83.7165 40.2299C83.7165 40.4214 83.7165 40.613 83.5249 40.8046C83.3333 41.1877 83.3333 41.3793 83.3333 41.7624C83.3333 41.954 83.3334 41.954 83.1418 42.1456C83.1418 42.3371 83.1418 42.3371 83.1418 42.5287V43.1034V42.9118C83.1418 42.7203 83.1418 42.5287 83.1418 42.5287C83.1418 41.954 83.3334 41.5708 83.7165 40.9961C83.9081 40.613 84.0996 40.2299 84.0996 40.0383C84.2912 39.4636 84.4828 39.0804 84.6743 38.8889ZM92.1456 48.659C92.3372 48.659 92.3372 48.4674 92.5287 48.4674C92.7203 48.4674 92.7203 48.4674 92.9119 48.2758C93.1035 48.2758 93.1035 48.0843 93.1035 48.0843L92.9119 48.2758C92.5288 48.2758 92.3372 48.4674 92.1456 48.659C91.3793 48.8505 90.8046 49.0421 89.8468 49.0421H89.272C89.0805 49.0421 89.0805 49.0421 88.8889 49.0421C88.6973 49.0421 88.6973 49.0421 88.5058 49.0421C88.1226 49.0421 87.7395 48.8505 87.3563 48.659L86.9732 48.4674C86.9732 48.4674 86.7816 48.4674 86.7816 48.2758H86.5901L86.7816 48.4674L86.9732 48.659L87.3563 48.8505C87.5479 48.8505 87.7395 49.0421 87.7395 49.0421C87.931 49.0421 88.1226 49.2337 88.3142 49.2337C88.3142 49.2337 88.5058 49.2337 88.6973 49.2337C88.8889 49.2337 88.8889 49.2337 89.0805 49.2337H89.8468C90.0383 49.2337 90.2299 49.2337 90.4215 49.2337C90.613 49.2337 90.8046 49.0421 90.9962 49.0421C91.1878 49.0421 91.3793 49.0421 91.5709 48.8505C91.7625 48.8505 91.954 48.659 92.1456 48.659ZM91.954 25.4789C91.3793 26.6283 90.8046 27.7777 90.0383 28.9272L89.4636 29.885C89.272 30.2682 89.0805 30.4597 89.0805 30.8429C88.8889 31.226 88.6973 31.4176 88.6973 31.8007C88.5058 31.9923 88.5058 32.3754 88.3142 32.567C88.3142 32.7586 88.1226 33.1417 88.1226 33.3333C88.1226 33.5249 87.9311 33.7164 87.9311 33.908C87.9311 34.0996 87.7395 34.2912 87.7395 34.2912C87.7395 34.0996 87.9311 34.0996 87.9311 33.908C88.1226 33.7164 88.1226 33.5249 88.1226 33.3333C88.1226 33.1417 88.3142 32.9502 88.5058 32.567C88.6973 31.9923 89.0805 31.6092 89.4636 30.8429C89.8468 30.2682 90.0383 29.5019 90.4215 28.9272C90.613 28.544 90.8046 28.1609 90.9962 27.9693C91.1878 27.5862 91.3793 27.3946 91.3793 27.0115C91.5709 26.6283 91.7625 26.4367 91.954 26.0536C91.7625 26.0536 91.954 25.862 91.954 25.4789C92.1456 25.2873 92.3372 25.0958 92.3372 24.9042C92.3372 24.7126 92.5287 24.521 92.5287 24.3295C92.5287 24.1379 92.7203 23.9463 92.7203 23.9463C92.7203 24.1379 92.5287 24.1379 92.5287 24.3295C92.3372 24.521 92.3372 24.7126 92.3372 24.9042C92.1456 25.0958 91.954 25.2873 91.954 25.4789Z" fill="#131313"/>
<path d="M121.648 27.3946C121.839 27.2031 122.031 27.2031 122.414 27.2031C122.797 27.3946 123.18 27.5862 123.755 27.9693C124.138 28.3525 124.521 28.7356 124.904 29.5019C125.287 30.0766 125.479 30.8429 125.479 31.4176C125.479 31.9923 125.287 32.7586 124.713 33.7165C124.138 35.0575 123.372 36.2069 122.605 37.3563C121.648 38.8889 120.69 40.2299 119.54 41.5709C118.391 43.1034 117.05 44.2529 115.709 45.5939C114.368 46.7433 112.835 47.7011 111.303 48.659C109.77 49.4253 108.238 49.8084 106.705 49.8084C106.322 49.8084 105.556 49.6169 104.789 49.2337C103.831 48.8506 103.065 48.2759 102.107 47.7011C101.341 47.1264 100.575 46.3602 99.8084 45.5939C99.2337 44.8276 98.8506 44.0613 98.8506 43.1034C98.8506 42.1456 99.0422 40.8046 99.6169 39.0805C100.192 37.3563 100.766 35.4406 101.533 33.3333C103.257 29.3103 104.981 25.2874 106.897 21.2644C107.663 19.5402 108.429 18.0077 109.004 16.8582C109.579 15.7088 109.962 15.1341 110.153 14.9425C110.345 14.5594 110.92 14.5594 111.303 14.9425C111.877 15.3257 112.452 15.7088 112.835 16.2835C113.41 16.8582 113.793 17.4329 114.176 18.1992C114.559 18.9655 114.751 19.5402 114.751 19.9234C114.751 20.1149 114.559 20.8812 113.985 22.0307C113.41 23.1801 112.835 24.7126 111.877 26.4368C111.111 28.1609 110.153 30.0766 109.387 31.9923C108.429 33.908 107.663 35.8238 106.897 37.3563C106.322 38.6973 105.747 40.0383 105.364 41.3793C104.981 42.5287 104.981 43.1034 105.364 43.1034C107.28 43.1034 109.004 42.5287 110.536 41.3793C112.069 40.2299 113.602 38.8889 114.943 37.1647C116.284 35.4406 117.433 33.7165 118.582 31.9923C120.115 30.4598 121.073 28.7356 121.648 27.3946ZM100.575 40.4215C100.766 40.0383 100.766 39.6552 100.958 39.272C101.149 38.8889 101.341 38.5057 101.533 38.1226C101.724 37.7395 101.916 37.1648 102.107 36.3985C102.107 36.0153 102.299 35.8238 102.49 35.4406C102.682 35.0575 102.682 34.8659 102.874 34.4828C103.065 34.0996 103.065 33.7165 103.257 33.5249C103.448 33.1418 103.64 32.7586 103.831 32.567C104.023 31.8008 104.406 31.0345 104.789 30.2682C105.172 29.5019 105.556 28.7356 105.939 27.9693C106.322 27.2031 106.513 26.4368 106.897 25.6705C107.28 24.9042 107.471 24.1379 107.854 23.3716C108.046 23.1801 108.046 22.7969 108.238 22.6054L108.429 22.2222C108.429 22.0307 108.621 22.0307 108.621 21.8391C108.621 21.6475 108.812 21.4559 108.812 21.0728C109.004 20.4981 109.387 19.9234 109.579 19.3487C109.77 18.7739 109.962 18.3908 110.153 18.1992C110.345 18.0077 110.345 17.8161 110.345 17.8161C110.345 17.6245 110.536 17.6245 110.536 17.433C110.536 17.2414 110.728 17.2414 110.728 17.0498L110.153 18.0077C109.962 18.3908 109.77 18.7739 109.579 19.1571C109.387 19.7318 109.195 20.1149 108.812 20.6897C108.238 21.8391 107.663 22.9885 107.28 23.9464C106.705 25.0958 106.13 26.4368 105.556 27.7778C104.215 30.6513 103.065 33.5249 102.107 36.59C101.916 37.1648 101.724 37.7395 101.533 38.3142C101.341 38.8889 101.149 39.272 101.149 39.6552C101.149 39.8467 100.958 40.0383 100.958 40.2299C100.958 40.4215 100.958 40.4215 100.958 40.613C100.575 40.4215 100.575 40.4215 100.575 40.4215ZM103.831 34.2912L104.023 33.5249C104.023 33.3333 104.215 33.1418 104.215 32.9502C104.215 32.7586 104.406 32.567 104.406 32.3755C104.406 32.567 104.215 32.7586 104.215 32.9502C104.023 33.1418 104.023 33.3333 103.831 33.5249C104.023 33.7165 103.831 33.908 103.831 34.2912C103.448 34.8659 103.065 35.4406 102.874 36.2069L102.107 38.5057C101.916 38.8889 101.916 39.272 101.724 39.6552C101.533 40.0383 101.533 40.4215 101.341 40.8046C101.341 41.1877 101.149 41.5709 101.149 41.7624C101.149 42.1456 100.958 42.5287 100.958 42.7203C100.958 43.1034 100.766 43.295 100.766 43.4866V44.2529C100.766 44.4444 100.766 44.636 100.958 44.636C100.958 44.636 100.958 44.636 100.958 44.8276C100.958 44.8276 100.958 44.8276 100.958 44.636C100.958 44.636 100.958 44.4444 100.958 44.2529C100.958 43.8697 100.958 43.295 101.149 42.7203C101.149 42.3372 101.341 42.1456 101.341 41.7624C101.533 41.3793 101.533 40.9962 101.724 40.8046L102.49 38.5057C102.682 38.1226 102.682 37.7395 102.874 37.3563C103.065 36.9732 103.065 36.59 103.257 36.2069C103.448 35.8238 103.448 35.4406 103.64 35.0575C103.64 34.8659 103.831 34.6743 103.831 34.2912ZM116.667 12.4521C116.475 12.4521 116.092 12.2605 115.709 12.069C115.326 11.6858 114.943 11.3027 114.559 10.9195C114.176 10.5364 113.985 10.1533 113.602 9.57854C113.41 9.1954 113.218 8.81226 113.218 8.62069C113.218 8.42912 113.41 7.85441 113.793 6.89655C114.176 5.9387 114.559 4.98084 114.943 4.02299C115.517 3.06513 115.9 2.10728 116.475 1.14943C117.241 0.383142 117.816 0 118.008 0C118.391 0 118.774 0.191571 119.349 0.766284C119.923 1.341 120.307 1.72414 120.881 2.29885C121.264 2.87356 121.839 3.44828 122.031 4.02299C122.222 4.5977 122.605 4.98084 122.605 5.17241C122.605 5.36398 122.414 5.74713 121.839 6.70498C120.69 8.42912 119.349 10.1533 118.008 11.6858C117.433 12.2605 117.05 12.4521 116.667 12.4521ZM116.284 40.613C116.475 40.4215 116.667 40.4215 116.667 40.2299C116.858 40.0383 117.05 39.8467 117.241 39.6552C117.433 39.4636 117.625 39.272 117.816 39.0805C118.008 38.8889 118.199 38.6973 118.391 38.5057C118.582 38.3142 118.774 38.1226 118.966 37.931L119.349 37.3563C119.54 37.1648 119.54 36.9732 119.732 36.7816C119.923 36.59 119.923 36.3985 120.115 36.2069C120.307 36.0153 120.307 35.8238 120.307 35.6322C120.307 35.4406 120.498 35.4406 120.498 35.249C120.498 35.0575 120.69 35.0575 120.69 34.8659C120.69 35.0575 120.498 35.0575 120.498 35.249C120.307 35.4406 120.307 35.4406 120.307 35.6322C120.115 35.8238 120.115 36.0153 120.115 36.2069C119.732 36.59 119.54 36.9732 119.349 37.3563C119.157 37.5479 119.157 37.7395 118.966 37.931C118.774 38.1226 118.582 38.3142 118.391 38.5057C118.199 38.6973 118.008 38.8889 117.816 39.0805C117.625 39.272 117.433 39.4636 117.241 39.6552C117.05 39.8467 116.858 40.0383 116.858 40.2299C116.475 40.2299 116.284 40.4215 116.284 40.613C115.9 40.8046 115.709 41.1877 115.517 41.3793C115.517 41.5709 115.326 41.5709 115.326 41.5709L115.517 41.3793C115.709 41.1877 116.092 40.9962 116.284 40.613ZM122.031 33.7165C122.222 33.5249 122.222 33.3333 122.222 33.1418C122.222 32.9502 122.414 32.7586 122.414 32.7586L122.605 32.3755L122.414 32.567C122.222 32.7586 122.222 32.7586 122.031 32.9502C122.031 33.1418 121.839 33.3333 122.031 33.7165C121.839 33.908 121.648 34.0996 121.456 34.2912C121.264 34.4828 121.073 34.8659 121.073 35.0575C120.881 35.249 120.69 35.6322 120.69 35.8238C120.498 36.0153 120.307 36.3985 120.115 36.59L118.966 38.1226C118.774 38.3142 118.582 38.6973 118.582 38.8889C118.391 39.0805 118.199 39.272 118.199 39.4636C118.008 39.6552 118.008 39.8467 117.816 40.0383C117.625 40.2299 117.625 40.2299 117.433 40.4215C117.433 40.613 117.241 40.613 117.241 40.613C117.241 40.613 117.241 40.613 117.433 40.613C117.433 40.613 117.433 40.613 117.625 40.4215C117.816 40.2299 117.816 40.2299 118.008 40.0383C118.199 39.8467 118.199 39.6552 118.391 39.4636C118.582 39.272 118.774 39.0805 118.774 38.8889C118.966 38.6973 119.157 38.5057 119.349 38.3142L120.498 36.7816C120.69 36.3985 120.881 36.2069 121.073 36.0153C121.264 35.8238 121.456 35.4406 121.456 35.249C121.648 35.0575 121.648 34.6743 121.839 34.4828C121.648 34.0996 121.839 33.908 122.031 33.7165Z" fill="#131313"/>
<path d="M168.582 27.5862C168.773 27.2031 169.157 27.2031 169.731 27.5862C170.306 27.7778 170.689 28.1609 171.264 28.7356C171.839 29.3103 172.222 29.6935 172.605 30.2682C172.988 30.8429 172.988 31.226 172.988 31.6092C172.03 33.3333 170.881 35.0575 169.54 37.3563C168.007 39.4636 166.475 41.3793 164.75 43.295C163.026 45.2107 161.111 46.7433 159.195 48.0843C157.279 49.4253 155.364 50 153.448 50C152.873 50 152.107 49.8084 151.341 49.4253C150.574 49.0421 149.808 48.4674 149.233 47.7011C148.659 47.1264 148.084 46.3601 147.509 45.5939C147.126 44.8276 146.743 44.2529 146.743 43.6782C146.743 42.7203 147.126 41.3793 147.701 39.8467C148.275 38.3142 149.233 36.7816 150.191 34.8659C151.149 32.9502 152.298 31.226 153.256 29.3103C154.214 27.3946 155.364 25.4789 156.13 23.5632C152.49 27.0115 149.233 30.2682 146.743 33.3333C144.252 36.3985 141.954 39.272 140.421 41.5709C138.697 44.0613 137.547 45.977 136.59 47.318C135.823 48.8506 135.249 49.4253 135.057 49.4253C134.865 49.4253 134.291 49.2337 133.716 49.0421C133.141 48.8506 132.567 48.4674 131.992 47.8927C131.417 47.5096 130.842 46.9349 130.459 46.3601C130.076 45.7854 129.885 45.2107 129.885 44.636C129.885 44.2529 130.268 43.4866 130.842 42.1456C131.609 40.8046 132.375 39.272 133.333 37.3563C134.291 35.4406 135.44 33.5249 136.781 31.226C137.931 29.1188 139.08 26.8199 140.229 24.7126C136.015 28.7356 132.567 32.1839 130.076 35.249C127.394 38.3142 125.478 40.9962 123.754 42.9119C122.605 44.4444 121.455 45.977 120.306 47.7011C119.54 48.8506 118.965 49.4253 118.582 49.4253C118.199 49.4253 117.624 49.2337 117.049 48.8506C116.475 48.4674 115.9 48.0843 115.517 47.5096C115.134 47.1264 114.559 46.5517 114.176 45.977C113.793 45.4023 113.601 45.2107 113.601 45.0191C113.601 45.0191 113.793 44.4444 114.367 43.4866C114.75 42.5287 115.325 41.1877 116.091 39.6552C116.858 38.1226 117.624 36.3985 118.582 34.4828C119.54 32.567 120.498 30.6513 121.455 28.5441C122.413 26.6283 123.371 24.5211 124.329 22.6054C125.287 20.6896 126.053 18.9655 126.819 17.4329C127.586 15.9004 128.16 14.5594 128.544 13.6015C128.927 12.6437 129.31 12.069 129.31 11.8774C129.31 11.3027 129.501 11.1111 130.076 11.3027C130.651 11.3027 131.226 11.6858 131.8 12.069C132.375 12.4521 132.95 12.8352 133.524 13.41C134.099 13.9847 134.291 14.3678 134.291 14.751C134.291 14.9425 134.099 15.5172 133.716 16.4751C133.333 17.4329 132.758 18.7739 132.183 20.1149C131.609 21.4559 130.842 23.1801 129.885 25.0958C129.118 26.8199 128.16 28.7356 127.394 30.4598C129.118 28.5441 130.842 26.6283 132.758 24.7126C134.482 22.9885 136.206 21.2644 137.931 19.5402C139.463 18.0077 140.996 16.6667 142.145 15.5172C143.295 14.3678 144.252 13.6015 144.636 13.41C143.678 13.41 143.678 13.41 143.869 13.41C144.252 13.41 144.636 13.6015 145.21 13.9847C145.785 14.3678 146.168 14.751 146.551 15.3257C146.934 15.9004 147.318 16.4751 147.701 17.0498C148.084 17.6245 148.084 18.1992 148.084 18.7739C148.084 18.9655 147.892 19.5402 147.701 20.1149C147.509 20.6896 147.126 21.4559 146.743 22.4138C146.36 23.3716 145.977 24.3295 145.402 25.2873L143.869 28.5441C145.402 27.0115 146.743 25.2873 148.467 23.7548C150 22.0306 151.532 20.4981 152.873 19.1571C154.023 18.0077 155.172 16.6667 156.321 15.5172C157.279 14.5594 158.046 13.9847 158.429 13.7931C158.429 13.7931 158.429 13.7931 158.62 13.7931H158.812C159.003 13.7931 159.003 13.7931 159.003 13.7931C159.961 14.1762 160.727 14.9425 161.302 15.7088C161.685 16.2835 162.069 16.8582 162.452 17.4329C162.835 18.1992 162.835 18.9655 162.835 19.7318C162.835 20.3065 162.643 21.2644 162.068 22.6054C161.494 23.7548 160.919 25.2873 160.153 26.8199C159.387 28.3525 158.62 29.885 157.662 31.6092C156.705 33.3333 155.938 34.8659 155.172 36.3985C154.406 37.7395 153.831 39.0805 153.256 40.613C152.682 41.7624 152.49 42.7203 152.49 43.4866C153.639 43.4866 154.789 43.1034 156.321 42.1456C157.662 41.1877 159.003 40.0383 160.536 38.6973C162.069 37.1647 163.409 35.4406 164.75 33.7165C166.091 31.6092 167.241 29.6935 168.582 27.5862ZM118.582 36.7816C118.773 36.59 118.773 36.3985 118.965 36.2069C119.157 36.0153 119.157 35.8237 119.348 35.6322C119.54 35.4406 119.54 35.249 119.731 34.8659C119.923 34.6743 119.923 34.2912 120.114 34.0996L120.689 32.7586C120.881 32.567 120.881 32.3755 120.881 32.1839C121.072 31.9923 121.072 31.8008 121.072 31.6092C121.264 31.4176 121.264 31.226 121.264 31.0345C121.264 30.8429 121.455 30.6513 121.455 30.6513C121.455 30.4598 121.647 30.4598 121.647 30.2682C121.647 30.2682 121.455 30.4598 121.455 30.6513C121.264 30.8429 121.072 31.226 121.072 31.4176C120.881 31.8008 120.689 32.1839 120.498 32.567C120.306 32.7586 120.306 32.9502 120.114 33.3333C119.923 33.5249 119.923 33.908 119.731 34.0996L119.157 35.4406C119.157 35.6322 118.965 35.8237 118.965 36.0153C118.773 36.3985 118.582 36.59 118.582 36.7816C118.39 36.9732 118.39 37.1647 118.199 37.3563C118.199 37.5479 118.007 37.5479 118.007 37.7395C118.007 37.931 118.007 37.931 117.816 38.1226C117.816 37.931 118.007 37.931 118.007 37.7395C118.199 37.7395 118.199 37.5479 118.199 37.3563C118.39 37.1647 118.582 36.9732 118.582 36.7816ZM120.881 30.6513C120.498 31.4176 120.114 32.1839 119.923 32.9502C119.731 33.3333 119.731 33.5249 119.54 33.7165C119.731 33.3333 119.731 33.1418 119.923 32.9502C120.114 32.7586 120.306 32.3755 120.306 31.9923C120.498 31.6092 120.689 31.226 120.881 30.6513C121.264 30.2682 121.455 29.6935 121.839 29.1188C122.03 28.5441 122.413 27.9693 122.605 27.3946C122.796 26.8199 123.18 26.2452 123.371 25.6705C123.563 25.0958 123.946 24.5211 124.137 23.7548C124.329 23.1801 124.712 22.6054 124.904 21.8391C125.095 21.2644 125.478 20.6896 125.67 19.9234C125.862 19.3487 126.245 18.7739 126.436 18.1992C126.628 17.6245 126.819 17.2414 127.203 16.6667L127.969 14.3678C127.969 14.1762 127.969 14.1762 128.16 13.9847C128.16 13.9847 128.16 13.7931 128.352 13.7931V13.6015C128.16 13.7931 128.16 14.1762 127.969 14.3678C127.586 15.1341 127.394 15.9004 127.011 16.6667C126.819 17.2414 126.628 17.6245 126.245 18.1992C126.053 18.7739 125.67 19.3487 125.478 19.9234C125.287 20.4981 124.904 21.0728 124.712 21.8391C124.521 22.4138 124.137 22.9885 123.946 23.7548C123.371 24.9042 122.796 26.2452 122.222 27.3946C121.647 28.7356 121.264 29.6935 120.881 30.6513ZM120.881 33.908C121.072 33.5249 121.264 33.3333 121.264 32.9502C121.455 32.567 121.647 32.3755 121.839 31.9923C122.03 31.6092 122.222 31.226 122.413 30.8429C122.605 30.4598 122.796 30.0766 122.988 29.6935C123.18 29.3103 123.371 28.9272 123.563 28.5441C123.754 28.1609 123.946 27.7778 123.946 27.3946C124.137 27.0115 124.329 26.6283 124.329 26.4368C124.521 26.0536 124.521 25.6705 124.712 25.4789C124.712 25.0958 124.904 24.9042 124.904 24.7126C124.904 24.5211 125.095 24.3295 125.095 24.1379V23.9464V23.7548C125.095 23.7548 125.095 23.7548 125.095 23.5632C125.095 23.5632 125.095 23.5632 125.095 23.7548C125.095 23.7548 125.095 23.9464 124.904 23.9464C124.904 23.9464 124.904 24.1379 124.712 24.1379C124.521 24.3295 124.521 24.5211 124.329 24.7126C124.137 24.9042 124.137 25.0958 123.946 25.4789C123.754 25.8621 123.563 26.0536 123.563 26.4368C123.371 26.8199 123.18 27.0115 122.988 27.3946C122.796 27.7778 122.605 28.1609 122.413 28.5441C122.222 28.9272 122.03 29.3103 121.839 29.6935C121.647 30.0766 121.455 30.4598 121.264 30.8429C121.072 31.226 120.881 31.6092 120.689 31.9923C120.498 32.3755 120.306 32.7586 120.306 32.9502C120.114 33.3333 120.114 33.5249 119.923 33.908C119.731 34.2912 119.731 34.4828 119.54 34.6743C119.54 34.8659 119.348 35.0575 119.348 35.249C119.348 35.4406 119.157 35.4406 119.157 35.6322C119.157 35.6322 119.157 35.6322 119.157 35.8237C119.348 35.6322 119.348 35.4406 119.54 35.249C119.731 35.0575 119.731 34.8659 119.923 34.6743C120.498 34.4828 120.689 34.2912 120.881 33.908ZM135.44 22.4138C135.823 22.0306 136.206 21.6475 136.398 21.4559C136.59 21.0728 136.973 20.8812 137.164 20.6896C137.356 20.4981 137.547 20.1149 137.739 19.9234L136.973 20.4981C136.781 20.6896 136.398 21.0728 136.206 21.2644C135.823 21.6475 135.632 22.0306 135.44 22.4138C134.865 22.6054 134.482 22.9885 134.099 23.5632C133.716 23.9464 133.333 24.3295 132.758 24.9042C132.375 25.4789 131.8 25.8621 131.417 26.2452C131.034 26.8199 130.459 27.2031 130.076 27.7778C129.118 28.7356 128.16 29.885 127.394 30.6513C127.011 31.226 126.436 31.6092 126.053 31.9923C125.67 32.3755 125.287 32.9502 124.904 33.1418C124.521 33.5249 124.329 33.908 123.946 34.2912C123.754 34.6743 123.563 34.8659 123.18 35.0575L122.988 35.4406L122.796 35.6322L122.605 35.8237C122.796 35.6322 122.988 35.4406 123.18 35.0575C123.371 34.8659 123.754 34.4827 123.946 34.2912C124.137 33.908 124.521 33.7165 124.904 33.3333C125.67 32.567 126.436 31.8008 127.394 30.8429C128.352 29.8851 129.31 28.9272 130.268 27.9693C131.226 27.0115 132.183 26.0536 133.141 25.0958C133.908 24.1379 134.674 23.1801 135.44 22.4138ZM136.973 31.4176C137.164 30.8429 137.547 30.4598 137.547 30.0766C137.739 29.8851 137.739 29.6935 137.739 29.5019C137.739 29.6935 137.547 29.8851 137.547 30.0766C137.356 30.2682 137.356 30.4598 137.164 30.6513C137.164 30.8429 136.973 31.0345 136.973 31.4176C136.398 31.9923 136.015 32.567 135.823 33.3333C135.632 33.7165 135.44 34.0996 135.249 34.4828C135.057 34.8659 134.865 35.249 134.674 35.6322C134.482 36.0153 134.291 36.3985 134.099 36.7816C133.908 37.1647 133.716 37.5479 133.524 37.931C133.333 38.3142 133.141 38.6973 132.95 38.8889C132.758 39.272 132.567 39.4636 132.567 39.8467C132.375 40.4214 131.992 40.9962 131.992 41.1877C131.8 41.3793 131.8 41.5709 131.8 41.7624L131.992 41.1877C132.183 40.8046 132.375 40.4214 132.758 39.8467C133.141 39.272 133.524 38.6973 133.908 37.931C134.291 37.1647 134.674 36.3985 135.057 35.8237C135.249 35.4406 135.44 35.0575 135.632 34.6743C135.823 34.2912 136.015 33.908 136.206 33.5249L136.781 32.567C136.781 31.9923 136.973 31.6092 136.973 31.4176ZM146.168 21.8391C146.168 22.0306 145.977 22.2222 145.977 22.2222C145.977 22.4138 145.977 22.4138 145.785 22.6054C145.785 22.7969 145.785 22.7969 145.785 22.9885L145.977 22.7969C145.977 22.7969 146.168 22.6054 146.168 22.4138C146.168 22.2222 146.168 22.0306 146.168 21.8391C146.36 21.6475 146.551 21.2644 146.743 20.8812C146.934 20.4981 147.126 20.1149 147.126 19.7318C147.318 19.3487 147.318 18.7739 147.318 18.3908C147.318 18.1992 147.318 18.1992 147.318 18.0077C147.318 17.8161 147.318 17.8161 147.318 17.6245C147.126 17.4329 147.126 17.2414 147.126 17.0498C146.934 16.6667 146.934 16.4751 146.743 16.2835V16.0919V16.2835C146.934 16.2835 146.934 16.4751 146.934 16.6667C146.934 16.8582 146.934 16.8582 147.126 17.0498C147.126 17.2414 147.318 17.4329 147.318 17.6245C147.318 17.8161 147.318 18.0077 147.318 18.1992C147.318 18.5824 147.318 19.1571 147.126 19.5402C146.934 19.7318 146.934 19.9234 146.934 20.1149C146.934 20.3065 146.743 20.4981 146.743 20.6896C146.743 20.8812 146.551 21.0728 146.551 21.2644C146.36 21.4559 146.168 21.6475 146.168 21.8391ZM150.957 22.0306C151.149 21.6475 151.532 21.2644 151.915 21.0728C152.298 20.6896 152.49 20.4981 152.873 20.1149C153.065 19.7318 153.448 19.5402 153.639 19.1571C153.831 18.9655 154.214 18.5824 154.406 18.3908C154.597 18.1992 154.789 18.0077 154.98 17.8161C155.172 17.6245 155.364 17.4329 155.364 17.2414L155.555 17.0498C155.555 17.0498 155.555 17.0498 155.747 16.8582L155.938 16.6667L155.364 17.2414C155.172 17.4329 154.98 17.6245 154.789 17.8161C154.597 18.0077 154.406 18.1992 154.214 18.3908C154.023 18.5824 153.639 18.7739 153.448 19.1571C153.065 19.3487 152.873 19.7318 152.682 19.9234C152.49 20.3065 152.107 20.4981 151.724 20.8812C151.341 21.0728 151.149 21.4559 150.766 21.8391C150.383 22.2222 150.191 22.6054 149.808 22.7969C149.616 23.1801 149.233 23.3716 148.85 23.7548C148.659 24.1379 148.275 24.3295 148.084 24.7126C147.892 24.9042 147.509 25.2873 147.318 25.4789C147.126 25.6705 146.934 25.8621 146.743 26.2452C146.551 26.4368 146.36 26.6283 146.36 26.8199C146.168 27.0115 145.977 27.2031 145.977 27.2031L146.36 26.8199C146.551 26.6283 146.743 26.4368 146.934 26.2452C147.126 26.0536 147.318 25.8621 147.509 25.4789C147.701 25.2873 148.084 25.0958 148.275 24.7126C148.467 24.5211 148.85 24.1379 149.042 23.7548C149.233 23.3716 149.616 23.1801 150 22.7969C150.383 22.6054 150.766 22.2222 150.957 22.0306ZM147.892 39.8467C147.892 39.6552 148.084 39.6552 148.084 39.4636C148.084 39.272 148.084 39.272 148.275 39.0805C148.275 38.8889 148.275 38.8889 148.467 38.8889C148.467 38.8889 148.467 38.8889 148.467 39.0805C148.467 39.0805 148.467 39.0805 148.467 39.272C148.084 39.272 148.084 39.4636 147.892 39.8467L147.509 40.8046C147.318 40.9962 147.318 41.1877 147.318 41.3793C147.318 41.5709 147.126 41.7624 147.126 41.954C147.126 42.1456 147.126 42.3372 146.934 42.5287C146.934 42.7203 146.934 42.9119 146.934 43.1034C146.934 43.4866 146.934 43.8697 147.126 44.0613C147.126 44.2529 147.318 44.4444 147.318 44.4444C147.318 44.636 147.509 44.636 147.509 44.8276L147.701 45.0191C147.701 45.0191 147.701 45.0191 147.701 44.8276C147.701 44.636 147.509 44.4444 147.509 44.2529C147.509 43.8697 147.318 43.4866 147.318 43.1034C147.318 42.7203 147.318 42.3372 147.509 41.954C147.509 41.7624 147.701 41.5709 147.701 41.3793C147.701 41.1877 147.701 40.9962 147.892 40.8046C147.701 40.613 147.892 40.2299 147.892 39.8467ZM151.341 33.5249C151.532 33.1418 151.724 32.7586 151.915 32.3755C152.107 31.9923 152.298 31.6092 152.49 31.226C152.682 30.8429 152.873 30.4598 153.065 30.0766C153.256 29.6935 153.448 29.3103 153.639 28.9272C153.831 28.5441 154.023 28.1609 154.214 27.9693C154.406 27.5862 154.597 27.2031 154.789 27.0115C154.98 26.6283 154.98 26.4368 155.172 26.2452C155.364 26.0536 155.364 25.8621 155.555 25.4789C155.555 25.2873 155.747 25.0958 155.747 24.9042C155.747 25.0958 155.555 25.2873 155.555 25.4789C155.364 25.6705 155.364 25.8621 155.172 26.0536C154.98 26.2452 154.789 26.6283 154.597 26.8199L153.448 28.9272C153.256 29.3103 153.065 29.6935 152.873 30.0766C152.682 30.4598 152.49 30.8429 152.107 31.226C151.915 31.6092 151.724 31.9923 151.532 32.3755C151.341 32.7586 151.149 33.1418 150.957 33.5249C150.574 34.2912 150.191 35.0575 149.808 35.6322C149.616 36.0153 149.425 36.2069 149.425 36.59C149.233 36.7816 149.233 36.9732 149.233 37.1647L149.042 37.7395C149.042 37.5479 149.233 37.3563 149.233 37.1647C149.425 36.9732 149.425 36.7816 149.616 36.59C149.808 36.3985 150 36.0153 150.191 35.8237C150.383 35.4406 150.574 35.0575 150.766 34.8659C150.766 34.0996 151.149 33.908 151.341 33.5249ZM155.172 18.1992C155.364 17.8161 155.747 17.6245 155.938 17.2414C156.13 16.8582 156.513 16.6667 156.705 16.4751C156.896 16.4751 156.896 16.2835 156.896 16.0919C156.896 15.9004 157.088 15.9004 157.088 15.7088L157.279 15.5172L157.088 15.7088C157.088 15.7088 156.896 15.9004 156.705 15.9004C156.513 15.9004 156.513 16.0919 156.321 16.0919C156.13 16.2835 155.747 16.6667 155.555 16.8582C155.172 17.2414 154.98 17.4329 154.789 17.8161C154.597 18.1992 154.214 18.3908 154.023 18.7739C153.831 19.1571 153.448 19.3487 153.256 19.5402C153.065 19.9234 152.873 20.1149 152.682 20.1149L152.49 20.3065L153.256 19.5402C153.448 19.3487 153.831 19.1571 154.023 18.7739C154.597 18.7739 154.98 18.5824 155.172 18.1992Z" fill="#131313"/>
<path d="M199.042 27.7778C199.617 27.9694 200.192 28.5441 200.575 28.9272C200.958 29.5019 201.149 30.0766 201.149 30.8429C201.149 31.2261 200.958 31.9923 200.383 33.1418C199.808 34.2912 199.042 35.4406 198.084 36.9732C196.935 38.5058 195.785 40.0383 194.444 41.3793C193.103 42.9119 191.379 44.2529 189.847 45.5939C188.123 46.9349 186.398 47.8927 184.483 48.659C182.567 49.4253 180.651 49.8084 178.544 49.8084C177.203 49.8084 175.862 49.4253 174.33 48.659C172.797 47.8927 171.648 46.7433 170.498 45.4023C169.349 44.0613 168.391 42.7203 167.625 40.9962C166.858 39.4636 166.475 37.7395 166.475 36.2069C166.475 34.6743 166.667 33.1418 167.241 31.4176C167.816 29.6935 168.582 27.9694 169.54 26.2452C170.498 24.5211 171.648 22.9885 172.797 21.456C173.946 19.9234 175.287 18.5824 176.628 17.433C177.969 16.2835 179.31 15.3257 180.843 14.5594C182.184 13.7931 183.525 13.41 184.866 13.41C186.59 13.41 187.931 13.7931 188.889 14.5594C189.847 15.3257 190.613 16.092 191.188 17.0498C191.762 18.0077 191.954 18.774 192.146 19.5402C192.146 20.3065 192.146 20.6897 191.954 20.6897C191.762 20.6897 191.762 20.6897 191.571 20.6897C191.571 20.8812 191.571 21.2644 191.571 21.6475C191.571 22.9885 191.188 24.5211 190.613 25.8621C189.272 28.9272 186.782 31.4176 183.908 33.1418C182.375 33.9081 180.843 34.2912 179.119 34.2912C177.969 34.2912 176.82 34.0996 176.054 33.7165C175.096 33.3333 174.521 32.7586 173.755 32.3755C172.797 34.8659 172.222 36.9732 172.222 39.0805C172.222 39.8468 172.222 40.613 172.414 41.3793C172.605 42.1456 172.605 42.9119 172.989 43.4866C173.18 44.0613 173.563 44.636 173.946 45.0192C174.33 45.4023 174.904 45.5939 175.67 45.5939C177.778 45.5939 179.693 45.2107 181.609 44.4445C183.333 43.6782 185.057 42.7203 186.59 41.5709C188.123 40.4215 189.464 39.0805 190.613 37.7395C191.762 36.3985 192.72 35.0575 193.678 33.7165C194.636 32.3755 195.211 31.4176 195.785 30.4598C196.36 29.5019 196.743 28.9272 196.935 28.5441C197.318 27.9694 198.084 27.7778 198.851 28.1609C198.659 27.5862 199.042 27.7778 199.042 27.7778ZM171.073 25.8621C171.264 25.6705 171.264 25.4789 171.456 25.2874C171.648 25.0958 171.648 24.9042 171.839 24.7127C172.031 24.5211 172.031 24.3295 172.222 24.1379C172.414 23.9464 172.414 23.7548 172.605 23.5632L173.18 22.7969C173.372 22.6054 173.563 22.2222 173.755 22.0307C173.946 21.8391 174.138 21.6475 174.138 21.456L174.33 21.2644C174.33 21.2644 174.329 21.2644 174.521 21.0728L174.713 20.8812L174.521 21.0728C174.521 21.0728 174.521 21.0728 174.33 21.2644L174.138 21.456C173.946 21.6475 173.755 21.8391 173.563 22.0307C173.372 22.2222 173.18 22.4138 172.989 22.6054C172.797 22.7969 172.797 22.7969 172.605 22.9885C172.414 23.1801 172.414 23.3717 172.222 23.3717C172.031 23.5632 172.031 23.5632 171.839 23.7548C171.648 23.9464 171.648 24.1379 171.456 24.3295C171.264 24.5211 171.264 24.7127 171.073 24.9042C170.881 25.0958 170.881 25.2874 170.69 25.4789C170.498 25.8621 170.307 26.2452 169.923 26.6284C169.732 26.8199 169.732 27.0115 169.732 27.2031C169.54 27.3946 169.54 27.5862 169.54 27.7778C169.349 27.9694 169.349 28.1609 169.349 28.3525C169.157 28.5441 169.157 28.7356 169.157 28.9272C169.157 29.1188 168.966 29.3104 168.966 29.5019C168.966 29.6935 168.774 29.8851 168.774 30.0766C168.582 30.4598 168.582 30.8429 168.582 31.0345C168.391 31.4176 168.391 31.6092 168.391 31.9924C168.391 32.1839 168.391 32.3755 168.391 32.7586C168.391 32.9502 168.391 33.1418 168.391 33.3333V33.1418C168.391 32.9502 168.391 32.9502 168.391 32.7586C168.391 32.5671 168.391 32.5671 168.391 32.3755C168.391 32.1839 168.391 32.1839 168.391 31.9924C168.391 31.8008 168.582 31.4176 168.582 31.0345C168.582 30.8429 168.774 30.8429 168.774 30.6514C168.774 30.4598 168.774 30.2682 168.966 30.0766C168.966 29.8851 169.157 29.6935 169.157 29.5019C169.157 29.3104 169.349 29.1188 169.349 28.9272C169.349 28.7356 169.54 28.5441 169.54 28.3525C169.732 28.1609 169.732 27.9694 169.732 27.7778C169.732 27.5862 169.923 27.3946 170.115 27.2031C170.307 27.0115 170.307 26.8199 170.498 26.6284C170.69 26.4368 170.69 26.2452 170.881 26.0537C170.881 26.2452 170.881 26.0537 171.073 25.8621ZM172.797 22.4138C172.797 22.6054 172.605 22.6054 172.605 22.7969L172.414 22.9885L172.605 22.7969C172.605 22.7969 172.797 22.6054 172.797 22.4138C173.18 22.2222 173.372 22.0307 173.563 21.6475C173.755 21.2644 174.138 21.0728 174.521 20.6897C174.713 20.4981 174.904 20.3065 175.096 20.115C175.287 19.9234 175.479 19.7318 175.67 19.5402C175.862 19.3487 176.054 19.1571 176.437 18.9655C176.628 18.774 176.82 18.5824 177.203 18.3908C177.395 18.1992 177.778 18.0077 177.969 17.8161C178.161 17.6245 178.544 17.433 178.736 17.2414C178.927 17.0498 179.31 16.8582 179.693 16.6667C180.077 16.4751 180.268 16.2835 180.651 16.092C181.226 15.7088 181.992 15.5173 182.567 15.3257C183.142 15.1341 183.716 14.9425 184.483 14.9425H185.441C185.824 14.9425 186.015 14.9425 186.398 15.1341C186.59 15.1341 186.59 15.1341 186.59 15.1341H186.782H186.973H187.165C187.356 15.1341 187.356 15.1341 187.356 15.1341H187.548C187.548 15.1341 187.739 15.3257 187.931 15.3257C188.314 15.5173 188.697 15.7088 189.272 16.092C189.464 16.092 189.655 16.2835 189.847 16.4751C190.038 16.6667 190.038 16.6667 190.23 16.8582L190.421 17.0498L190.613 17.2414C190.805 17.2414 190.805 17.433 190.805 17.433L190.613 17.2414C190.421 17.0498 190.23 16.8582 190.038 16.6667C189.847 16.4751 189.847 16.4751 189.655 16.2835C189.464 16.092 189.272 16.092 189.272 15.9004C189.08 15.9004 188.889 15.7088 188.697 15.5173C188.506 15.3257 188.314 15.1341 188.123 15.1341C187.931 15.1341 187.739 15.1341 187.739 14.9425C187.548 14.9425 187.548 14.751 187.356 14.751C187.165 14.751 186.973 14.751 186.782 14.5594H186.59H186.398C185.632 14.3678 185.057 14.3678 184.291 14.3678C183.908 14.3678 183.716 14.3678 183.333 14.5594C182.95 14.5594 182.567 14.751 182.184 14.751C181.418 14.9425 180.843 15.1341 180.268 15.5173C179.885 15.7088 179.502 15.9004 179.31 16.092L178.352 16.6667C178.161 16.8582 177.778 17.0498 177.586 17.2414C177.395 17.433 177.011 17.6245 176.82 17.8161C176.245 18.1992 175.862 18.774 175.479 19.1571C175.096 19.5402 174.713 19.9234 174.33 20.3065C173.946 20.6897 173.563 21.0728 173.372 21.456C173.18 22.0307 172.988 22.2222 172.797 22.4138ZM176.054 30.0766C177.969 30.0766 179.693 29.6935 180.843 28.9272C182.184 28.1609 183.142 27.2031 184.1 26.0537C184.866 24.9042 185.632 23.7548 186.015 22.4138C186.59 21.0728 186.782 19.9234 187.165 18.9655C186.973 18.9655 186.973 18.9655 186.782 18.9655C186.59 18.9655 186.59 18.9655 186.398 18.9655C185.441 18.9655 184.483 19.3487 183.525 19.9234C182.375 20.4981 181.418 21.2644 180.268 22.4138C179.119 23.5632 178.161 24.7127 177.203 26.0537C176.245 27.3946 175.287 28.7356 174.521 30.2682C174.904 30.0766 175.287 30.0766 176.054 30.0766ZM185.441 44.2529C185.632 44.0613 185.824 44.0613 186.015 43.8697C186.207 43.6782 186.398 43.6782 186.59 43.4866C186.782 43.295 186.973 43.295 186.973 43.1035C186.782 43.1035 186.782 43.295 186.59 43.4866C186.398 43.4866 186.207 43.6782 186.015 43.8697L185.441 44.2529C185.057 44.2529 184.866 44.4445 184.483 44.4445C184.1 44.636 183.908 44.636 183.525 44.8276C183.333 44.8276 183.142 45.0192 182.95 45.0192C182.759 45.0192 182.567 45.2107 182.375 45.2107C182.184 45.2107 181.992 45.4023 181.801 45.4023C181.609 45.4023 181.418 45.4023 181.226 45.5939C181.034 45.5939 180.843 45.7855 180.651 45.7855C180.46 45.7855 180.268 45.7855 180.077 45.977C179.885 45.977 179.693 45.977 179.502 46.1686C179.31 46.1686 179.119 46.1686 178.927 46.1686C178.544 46.1686 178.161 46.3602 177.969 46.3602C177.778 46.3602 177.586 46.3602 177.395 46.3602C177.203 46.3602 177.203 46.3602 177.011 46.3602C176.82 46.3602 176.628 46.3602 176.245 46.3602C176.054 46.3602 175.862 46.3602 175.67 46.3602H175.479H175.287H175.096H176.245C176.628 46.3602 176.82 46.3602 177.011 46.3602C177.395 46.3602 177.778 46.3602 177.969 46.3602C178.161 46.3602 178.544 46.3602 179.119 46.1686L179.693 45.977C179.885 45.977 180.077 45.977 180.268 45.7855C180.46 45.7855 180.651 45.7855 180.843 45.7855C181.034 45.7855 181.226 45.7855 181.418 45.5939C181.609 45.5939 181.801 45.4023 181.992 45.4023C182.184 45.4023 182.375 45.4023 182.567 45.2107L183.716 44.8276C184.1 44.636 184.291 44.4445 184.674 44.4445C185.057 44.636 185.249 44.4445 185.441 44.2529ZM186.207 23.3717C186.207 23.3717 186.207 23.5632 186.207 23.3717C186.015 23.5632 186.015 23.5632 186.015 23.7548V23.9464C185.824 24.1379 185.824 24.3295 185.632 24.5211C185.441 24.7127 185.441 25.0958 185.249 25.2874C185.057 25.4789 184.866 25.8621 184.674 26.0537C184.483 26.4368 184.291 26.6284 183.908 27.0115C183.716 27.2031 183.716 27.2031 183.525 27.3946C183.333 27.5862 183.333 27.7778 183.142 27.7778C182.95 27.9694 182.759 27.9694 182.567 28.1609C182.375 28.3525 182.184 28.3525 181.992 28.5441L181.418 28.9272L181.226 29.1188C181.034 29.1188 181.034 29.1188 181.034 29.3104C180.651 29.5019 180.268 29.6935 179.885 29.8851C179.693 29.8851 179.502 30.0766 179.31 30.0766C179.119 30.0766 178.927 30.2682 178.736 30.2682C178.352 30.4598 177.969 30.4598 177.586 30.4598L176.82 30.6514H176.245C176.054 30.6514 175.862 30.6514 175.67 30.6514H175.479H176.82C177.011 30.6514 177.011 30.6514 177.203 30.6514C177.395 30.6514 177.586 30.6514 177.778 30.6514C177.969 30.6514 178.161 30.6514 178.352 30.4598C178.544 30.4598 178.736 30.4598 178.927 30.2682C179.119 30.2682 179.31 30.0766 179.502 30.0766C179.693 30.0766 179.885 29.8851 180.077 29.8851C180.268 29.8851 180.46 29.6935 180.651 29.6935C180.843 29.6935 181.034 29.5019 181.226 29.5019L181.418 29.3104C181.609 29.3104 181.609 29.3104 181.609 29.1188L182.184 28.7356C182.375 28.7356 182.567 28.5441 182.759 28.3525C182.95 28.1609 183.142 27.9694 183.333 27.9694C183.525 27.7778 183.525 27.5862 183.716 27.5862C183.908 27.3946 183.908 27.3946 184.1 27.2031C184.1 27.0115 184.291 26.8199 184.483 26.8199C184.674 26.6284 184.674 26.6284 184.866 26.4368C184.866 26.2452 185.057 26.0537 185.057 26.0537C185.057 25.8621 185.249 25.8621 185.249 25.6705C185.441 25.2874 185.632 25.0958 185.632 24.9042C185.632 24.7127 185.824 24.5211 185.824 24.3295C186.015 23.9464 186.207 23.3717 186.207 23.3717Z" fill="#131313"/>
</svg>
