<svg width="214" height="50" viewBox="0 0 214 50" fill="none" xmlns="http://www.w3.org/2000/svg">
<path d="M5.6 15.6C24.6 9.4 26.6 15.4 26.6 24.2V49.2H20.8V26C20.8 18.8 20.2 16.6 5.8 21.6V49H0V13H4.8L5.6 15.6ZM67.8 31C67.8 44 65.2 50 53.2 50C41.2 50 38.6 44 38.6 31C38.6 18 41.2 12 53.2 12C65.2 12 67.8 18.2 67.8 31ZM62 31C62 20.4 59.6 17.8 53.2 17.8C46.8 17.8 44.4 20.2 44.4 31C44.4 41.8 46.8 44.2 53.2 44.2C59.6 44.2 62 41.8 62 31ZM98.6 18.6C95 18.8 92.2 19.4 86.4 21.6V49H80.6V13H85.4L86.2 15.6C91 13.8 94.2 13 98.6 13V18.6ZM132.4 48C116.2 51.4 114.4 46.2 114.4 38V18.6H110V13H114.4V0H120.2V13H129.8V18.8H120.2V36.4C120.2 42.6 121 44.6 131.4 42.6L132.4 48ZM174.4 31C174.4 44 171.8 50 159.8 50C147.8 50 145.2 44 145.2 31C145.2 18 147.8 12 159.8 12C172 12 174.4 18.2 174.4 31ZM168.6 31C168.6 20.4 166.2 17.8 159.8 17.8C153.4 17.8 151 20.2 151 31C151 41.8 153.4 44.2 159.8 44.2C166.4 44.2 168.6 41.8 168.6 31ZM193 15.6C212 9.4 214 15.4 214 24.2V49.2H208.2V26C208.2 18.8 207.6 16.6 193.2 21.6V49H187.4V13H192.2L193 15.6Z" fill="#131313"/>
</svg>
