<svg width="187" height="50" viewBox="0 0 187 50" fill="none" xmlns="http://www.w3.org/2000/svg">
<path d="M39.4231 4.0385C40.9615 4.0385 42.6923 4.0385 44.2308 3.84619V5.00004C43.0769 5.38465 42.1154 6.15388 41.1538 7.30773C40.1923 8.46158 39.2308 10.1923 38.4615 12.3077L25 47.8847C24.4231 47.8847 23.8462 47.8847 22.6923 47.8847C21.7308 47.8847 20.9615 47.8847 20.5769 47.8847L4.23077 8.84619C3.65385 7.50004 3.07692 6.5385 2.30769 5.76927C1.34615 5.38465 0.769231 5.19235 0 5.00004V3.84619C2.5 4.0385 5.76923 4.0385 9.80769 4.0385C14.2308 4.0385 17.5 4.0385 19.6154 3.84619V5.00004C18.0769 5.00004 16.9231 5.19234 16.1538 5.57696C15.3846 5.96158 15.1923 6.5385 15.1923 7.30773C15.1923 7.88465 15.3846 8.84619 15.9615 10.1923L27.3077 38.077L35.1923 17.5C36.3461 14.2308 36.9231 11.7308 36.9231 9.80773C36.9231 8.07696 36.5385 6.92311 35.5769 6.15388C34.6154 5.38465 33.2692 5.00004 31.5385 5.00004V3.84619C34.2308 4.0385 36.9231 4.0385 39.4231 4.0385ZM65.1923 19.2308C67.8846 21.9231 69.2308 25.9616 69.2308 31.7308C69.2308 37.3077 67.8846 41.5385 65.1923 44.2308C62.5 46.9231 58.6538 48.077 53.8461 48.077C49.0385 48.077 45.3846 46.7308 42.5 44.2308C39.8077 41.5385 38.4615 37.5 38.4615 31.7308C38.4615 25.9616 39.8077 21.9231 42.5 19.2308C45.1923 16.5385 49.0385 15.3847 53.8461 15.3847C58.6538 15.3847 62.5 16.7308 65.1923 19.2308ZM49.6154 20.3847C48.4615 22.8847 48.0769 26.7308 48.0769 31.9231C48.0769 37.1154 48.6538 40.7693 49.6154 43.2693C50.7692 45.7693 52.1154 46.9231 53.8461 46.9231C55.5769 46.9231 57.1154 45.7693 58.0769 43.2693C59.2308 40.7693 59.6154 36.9231 59.6154 31.9231C59.6154 26.7308 59.0385 22.8847 58.0769 20.3847C57.1154 17.8847 55.5769 16.7308 53.8461 16.7308C52.1154 16.5385 50.5769 17.8847 49.6154 20.3847ZM87.5 17.1154C89.0385 15.9616 90.7692 15.3847 92.5 15.3847C93.6538 15.3847 94.8077 15.577 95.5769 16.1539C96.3461 16.7308 97.1154 17.3077 97.5 18.2693C97.8846 19.0385 98.0769 20 98.0769 20.9616C98.0769 22.5 97.6923 23.6539 96.7308 24.6154C95.7692 25.577 94.6154 26.1539 93.2692 26.1539C91.9231 26.1539 90.7692 25.7693 90 25C89.2308 24.2308 88.8461 23.2693 88.8461 22.1154C88.8461 20.1923 89.8077 18.4616 91.5385 17.3077C91.3461 17.3077 90.9615 17.3077 90.7692 17.3077C90.5769 17.3077 90.1923 17.3077 89.8077 17.5C88.8461 17.6923 87.8846 18.077 86.9231 19.0385C85.9615 19.8077 85.3846 20.9616 84.8077 22.1154C84.4231 23.2693 84.0385 24.4231 84.0385 25.577V41.9231C84.0385 43.8462 84.4231 45.1923 85.3846 45.9616C86.3461 46.7308 87.8846 47.1154 89.8077 47.1154V48.077C84.6154 47.8847 81.3461 47.8847 80 47.8847C78.6538 47.8847 75.7692 47.8847 71.1538 48.077V46.7308C72.1154 46.7308 72.8846 46.5385 73.4615 46.3462C74.0385 46.1539 74.4231 45.577 74.6154 45C74.8077 44.4231 75 43.4616 75 42.3077V22.8847C75 20.9616 74.6154 19.6154 74.0385 18.8462C73.4615 18.077 72.5 17.5 70.9615 17.5V16.1539C72.3077 16.3462 73.4615 16.3462 74.8077 16.3462C78.4615 16.3462 81.5385 16.1539 83.8461 15.577V21.3462C84.8077 19.6154 85.9615 18.077 87.5 17.1154Z" fill="#131313"/>
<path d="M112.308 17.3077C113.846 16.3462 115.769 15.7692 117.885 15.7692C120 15.7692 121.923 16.3462 123.462 17.5C125 18.6538 126.346 20.5769 127.308 22.8846C128.269 25.3846 128.654 28.2692 128.654 31.9231C128.654 36.1538 128.077 39.4231 126.731 42.1154C125.577 44.8077 123.846 46.7308 121.731 47.8846C119.616 49.0385 117.308 49.8077 114.616 49.8077C111.731 49.8077 109.616 49.0385 107.885 47.6923C107.5 47.6923 107.308 47.6923 106.923 47.6923C105.577 47.6923 104.231 47.8846 103.077 48.2692C101.923 48.6538 100.769 49.2308 100 50L99.0386 49.4231C99.2309 48.4615 99.4232 47.1154 99.4232 45.9615V7.5C99.4232 5.57692 99.0386 4.23077 98.4617 3.26923C97.8848 2.5 96.9232 1.92308 95.3848 1.92308V0.769231C96.7309 0.961539 97.8848 0.961538 99.0386 0.961538C102.5 0.961538 105.577 0.576923 107.885 0V21.7308C109.616 19.8077 110.769 18.2692 112.308 17.3077ZM113.269 48.6538C117.692 48.6538 119.808 43.4615 119.808 32.8846C119.808 27.6923 119.423 24.0385 118.462 21.9231C117.5 19.6154 116.154 18.6538 114.423 18.6538C113.077 18.6538 111.923 19.2308 110.769 20.1923C109.616 21.1538 109.039 22.5 108.654 24.2308V47.3077C110 48.0769 111.539 48.6538 113.269 48.6538ZM142.116 31.5385C142.116 34.2308 142.5 36.3462 143.269 38.0769C144.039 39.8077 145 41.1538 146.346 41.9231C147.5 42.6923 148.846 43.0769 150.192 43.0769C153.654 43.0769 156.346 41.5385 158.462 38.2692L159.616 38.6538C159.039 40.3846 158.269 41.7308 157.116 43.2692C155.962 44.6154 154.616 45.9615 152.885 46.7308C151.154 47.6923 149.231 48.0769 147.116 48.0769C144.231 48.0769 141.731 47.5 139.616 46.3462C137.5 45.1923 135.769 43.4615 134.616 40.9615C133.462 38.6538 132.885 35.5769 132.885 32.1154C132.885 28.4615 133.462 25.3846 134.808 22.8846C136.154 20.3846 137.885 18.4615 140.192 17.3077C142.5 16.1538 145.192 15.3846 148.077 15.3846C155.962 15.3846 159.808 19.8077 159.808 28.6538H142.308C142.116 29.2308 142.116 30.1923 142.116 31.5385ZM150.769 19.8077C150 17.6923 149.039 16.7308 147.5 16.7308C145.962 16.7308 144.808 17.6923 143.846 19.4231C142.885 21.1538 142.308 23.8462 142.116 27.6923H151.923C151.923 24.4231 151.539 21.7308 150.769 19.8077ZM167.692 43.8462C169.039 45.7692 170.962 46.7308 173.269 46.7308C174.423 46.7308 175.385 46.3462 176.346 45.5769C177.116 44.8077 177.692 43.8462 177.692 42.3077C177.692 41.1538 177.5 40.1923 176.923 39.2308C176.346 38.2692 175.769 37.5 175 36.9231C174.231 36.1538 173.077 35.3846 171.539 34.0385C170 32.8846 168.654 31.7308 167.308 30.5769C166.346 29.6154 165.577 28.6538 164.808 27.5C164.039 26.3462 163.846 25 163.846 23.4615C163.846 21.7308 164.231 20.1923 165.192 19.0385C166.154 17.8846 167.5 16.9231 169.039 16.1538C170.769 15.5769 172.5 15.1923 174.231 15.1923C175.769 15.1923 177.116 15.3846 178.462 15.7692C179.808 16.1538 180.769 16.5385 181.539 17.1154C181.923 17.3077 182.308 17.5 182.692 17.5C183.462 17.5 183.846 16.7308 184.039 15.3846H185.385C185.192 17.3077 185.192 20.9615 185.192 25.9615H183.846C183.462 23.2692 182.692 21.1538 181.539 19.4231C180.385 17.6923 178.462 16.7308 176.154 16.7308C175 16.7308 174.039 17.1154 173.269 17.6923C172.5 18.4615 172.116 19.2308 172.116 20.5769C172.116 21.9231 172.5 23.0769 173.462 24.0385C174.423 25 175.385 25.9615 176.731 26.9231C178.077 27.8846 179.039 28.4615 179.616 28.8462C181.346 30 182.5 31.1538 183.654 32.1154C184.616 33.0769 185.385 34.0385 185.962 35.1923C186.539 36.3462 186.923 37.6923 186.923 39.2308C186.923 40.9615 186.346 42.5 185.385 43.8462C184.423 45.1923 182.885 46.1538 181.154 46.9231C179.423 47.6923 177.5 48.0769 175.385 48.0769C173.269 48.0769 171.346 47.6923 169.808 46.7308C168.846 46.3462 167.885 45.7692 166.923 45.3846C166.731 45.3846 166.731 45.3846 166.539 45.3846C165.962 45.3846 165.385 46.1538 165.192 47.5H163.462C163.654 45.1923 163.654 41.1538 163.654 35.5769H165C165.385 39.0385 166.346 41.7308 167.692 43.8462Z" fill="#131313"/>
</svg>
