<svg width="303" height="50" viewBox="0 0 303 50" fill="none" xmlns="http://www.w3.org/2000/svg">
<path d="M0 50V0H33.3333V8.61111H9.72222V21.3889H29.4444V29.1667H9.72222V50H0ZM50 50V0H72.5C74.7222 0 76.9444 0.555556 78.8889 1.38889C80.8333 2.22222 82.5 3.61111 84.1667 5.27778C85.5556 6.94444 86.6667 8.61111 87.5 10.5556C88.3333 12.5 88.6111 14.4444 88.6111 16.6667C88.6111 20 87.7778 22.7778 86.1111 25.5556C84.4444 28.0556 82.2222 30.2778 79.4444 31.3889L91.6667 50H80.5556L69.7222 33.3333H60V50H50ZM60 24.7222H72.5C73.3333 24.7222 74.1667 24.4444 75 24.1667C75.8333 23.8889 76.3889 23.0556 76.9444 22.5C77.5 21.6667 78.0556 20.8333 78.3333 20C78.6111 18.8889 78.8889 18.0556 78.8889 16.9444C78.8889 14.7222 78.0555 12.7778 76.6667 11.1111C76.1111 10.2778 75.2778 9.72222 74.4444 9.44444C73.6111 9.16667 72.7778 8.88889 71.9444 8.88889H60V24.7222V24.7222ZM108.333 50V0H116.667V50H108.333ZM138.889 50V0H156.667C160.556 0 164.167 0.555555 167.222 1.94444C170.278 3.33333 172.778 5 174.722 7.22222C176.667 9.44445 178.333 12.2222 179.167 15C180.278 18.0556 180.556 21.3889 180.556 24.7222C180.556 28.6111 180 31.9444 178.889 35C177.778 38.0556 176.111 40.5556 174.167 42.7778C171.944 45 169.444 46.6667 166.667 47.7778C163.611 48.8889 160.278 49.4444 156.667 49.4444H138.889V50ZM171.111 25C171.111 22.5 170.833 20.2778 170.278 18.3333C169.722 16.3889 168.611 14.7222 167.5 13.0556C166.389 11.6667 164.722 10.5556 163.056 9.72222C161.111 8.88889 159.167 8.61111 156.944 8.61111H148.611V41.6667H156.944C159.167 41.6667 161.389 41.3889 163.056 40.2778C165 39.4444 166.389 38.3333 167.5 36.6667C168.889 35 169.722 33.3333 170.278 31.3889C170.833 29.4444 171.111 27.2222 171.111 25ZM194.444 50L214.167 0H221.944L241.667 50H231.389L226.667 37.5H209.167L204.722 50H194.444ZM218.056 10.5556L210.833 30.8333H225L218.056 10.5556ZM257.5 0L269.444 24.1667L281.667 0H291.667L274.167 32.5V50H264.722V32.5L247.222 0H257.5ZM302.778 44.4444C302.778 47.5 300.278 50 297.222 50C294.167 50 291.667 47.5 291.667 44.4444C291.667 41.3889 294.167 38.8889 297.222 38.8889C300.278 38.8889 302.778 41.3889 302.778 44.4444Z" fill="#131313"/>
</svg>
