<svg width="50" height="50" viewBox="0 0 50 50" fill="none" xmlns="http://www.w3.org/2000/svg">
<path d="M47.2222 34.7222C43.75 34.7222 40.4167 34.1667 37.3056 33.1389C36.8171 32.9833 36.2957 32.9632 35.7967 33.0806C35.2978 33.198 34.84 33.4485 34.4722 33.8056L28.3611 39.9167C20.4755 35.9062 14.0661 29.4967 10.0556 21.6111L16.1667 15.4722C16.5346 15.1232 16.7953 14.6764 16.9183 14.1844C17.0413 13.6924 17.0215 13.1756 16.8611 12.6944C15.8074 9.4946 15.2728 6.14666 15.2778 2.77778C15.2778 1.25 14.0278 0 12.5 0H2.77778C1.25 0 0 1.25 0 2.77778C0 28.8611 21.1389 50 47.2222 50C48.75 50 50 48.75 50 47.2222V37.5C50 35.9722 48.75 34.7222 47.2222 34.7222ZM44.4444 25H50C50 18.3696 47.3661 12.0107 42.6777 7.32233C37.9893 2.63392 31.6304 0 25 0V5.55556C35.75 5.55556 44.4444 14.25 44.4444 25ZM33.3333 25H38.8889C38.8889 17.3333 32.6667 11.1111 25 11.1111V16.6667C29.6111 16.6667 33.3333 20.3889 33.3333 25Z" fill="#F7F7F7"/>
</svg>
