<svg width="65" height="50" viewBox="0 0 65 50" fill="none" xmlns="http://www.w3.org/2000/svg">
<path d="M15.85 50C18.4 50 20.75 48.55 21.85 46.3L28.95 32.1C29.65 30.7 30 29.2 30 27.65V5C30 2.25 27.75 0 25 0H5C2.25 0 0 2.25 0 5V25C0 27.75 2.25 30 5 30H15L9.85 40.3C7.6 44.75 10.85 50 15.85 50ZM50.85 50C53.4 50 55.75 48.55 56.85 46.3L63.95 32.1C64.65 30.7 65 29.2 65 27.65V5C65 2.25 62.75 0 60 0H40C37.25 0 35 2.25 35 5V25C35 27.75 37.25 30 40 30H50L44.85 40.3C42.6 44.75 45.85 50 50.85 50Z" fill="#EDB408"/>
</svg>
