<svg width="50" height="51" viewBox="0 0 50 51" fill="none" xmlns="http://www.w3.org/2000/svg">
<path d="M25 0.5C11.1895 0.5 0 11.6895 0 25.5C0 39.3105 11.1895 50.5 25 50.5C38.8105 50.5 50 39.3105 50 25.5C50 11.6895 38.8105 0.5 25 0.5ZM25 45.6613C13.881 45.6613 4.83871 36.619 4.83871 25.5C4.83871 14.381 13.881 5.33871 25 5.33871C36.119 5.33871 45.1613 14.381 45.1613 25.5C45.1613 36.619 36.119 45.6613 25 45.6613ZM33.4677 31.2056C31.371 33.7258 28.2762 35.1774 25 35.1774C21.7238 35.1774 18.629 33.7359 16.5323 31.2056C15.6754 30.1774 14.1532 30.0464 13.125 30.8931C12.0968 31.75 11.9657 33.2722 12.8125 34.3004C15.8367 37.9294 20.2823 40.006 25 40.006C29.7177 40.006 34.1633 37.9294 37.1875 34.3004C38.0444 33.2722 37.9032 31.75 36.875 30.8931C35.8468 30.0464 34.3246 30.1774 33.4677 31.2056V31.2056ZM13.7601 20.9637C14.5363 19.5827 15.6956 18.7863 16.9355 18.7863C18.1754 18.7863 19.3347 19.5827 20.1109 20.9637L21.0685 22.6774C21.2802 23.0504 21.6935 23.1512 22.006 23.0504C22.369 22.9395 22.6109 22.5968 22.5806 22.2137C22.248 17.9698 19.3347 15.0161 16.9355 15.0161C14.5363 15.0161 11.623 17.9698 11.2903 22.2137C11.2601 22.5867 11.502 22.9395 11.8649 23.0504C12.2077 23.1613 12.6109 23 12.8024 22.6774L13.7601 20.9637ZM33.0645 15.0161C30.6653 15.0161 27.752 17.9698 27.4194 22.2137C27.3891 22.5867 27.631 22.9395 27.994 23.0504C28.3468 23.1613 28.7399 23 28.9315 22.6774L29.8891 20.9637C30.6653 19.5827 31.8246 18.7863 33.0645 18.7863C34.3044 18.7863 35.4637 19.5827 36.2399 20.9637L37.1976 22.6774C37.4093 23.0504 37.8226 23.1512 38.1351 23.0504C38.498 22.9395 38.7399 22.5968 38.7097 22.2137C38.377 17.9698 35.4637 15.0161 33.0645 15.0161Z" fill="black" fill-opacity="0.05"/>
</svg>
