<svg width="50" height="50" viewBox="0 0 50 50" fill="none" xmlns="http://www.w3.org/2000/svg">
<path d="M49.0723 49.0723C48.4538 49.6908 47.7132 50 46.8506 50C45.988 50 45.2474 49.6908 44.6289 49.0723L34.9609 39.4043C31.0547 42.3014 26.6927 43.75 21.875 43.75C18.9128 43.75 16.0807 43.1722 13.3789 42.0166C10.6771 40.861 8.34961 39.3066 6.39648 37.3535C4.44336 35.4004 2.889 33.0729 1.7334 30.3711C0.5778 27.6693 0 24.8372 0 21.875C0 18.9128 0.5778 16.0807 1.7334 13.3789C2.889 10.6771 4.44336 8.34961 6.39648 6.39648C8.34961 4.44336 10.6771 2.889 13.3789 1.7334C16.0807 0.5778 18.9128 0 21.875 0C24.8372 0 27.6693 0.5778 30.3711 1.7334C33.0729 2.889 35.4004 4.44336 37.3535 6.39648C39.3066 8.34961 40.861 10.6771 42.0166 13.3789C43.1722 16.0807 43.75 18.9128 43.75 21.875C43.75 26.6927 42.3014 31.0547 39.4043 34.9609L49.0723 44.6289C49.6908 45.2474 50 45.988 50 46.8506C50 47.7132 49.6908 48.4538 49.0723 49.0723ZM21.875 6.25C19.043 6.25 16.4307 6.94987 14.0381 8.34961C11.6455 9.74935 9.74935 11.6455 8.34961 14.0381C6.94987 16.4307 6.25 19.043 6.25 21.875C6.25 24.707 6.94987 27.3275 8.34961 29.7363C9.74935 32.1452 11.6455 34.0413 14.0381 35.4248C16.4307 36.8083 19.043 37.5 21.875 37.5C24.707 37.5 27.3193 36.8083 29.7119 35.4248C32.1045 34.0413 34.0007 32.1452 35.4004 29.7363C36.8001 27.3275 37.5 24.707 37.5 21.875C37.5 19.043 36.8001 16.4307 35.4004 14.0381C34.0007 11.6455 32.1045 9.74935 29.7119 8.34961C27.3193 6.94987 24.707 6.25 21.875 6.25Z" fill="#F7F7F7"/>
</svg>
